<svg width="771" height="226" viewBox="0 0 771 226" fill="none" xmlns="http://www.w3.org/2000/svg">
<rect width="771" height="226" fill="white"/>
<path d="M257.78 81.324C249.71 81.311 243.01 82.966 240.42 83.869L237.75 98.27C237.75 98.323 251.03 94.728 256.88 94.94C266.56 95.288 267.46 98.642 267.29 103.169C267.45 103.434 264.79 99.078 256.41 98.932C245.83 98.75 230.92 102.675 230.94 118.633C230.65 136.585 244.34 141.865 253.67 141.955C262.05 141.805 265.99 138.785 268.14 137.165C270.97 134.205 274.21 131.235 277.29 127.663C274.37 132.975 271.84 136.645 269.2 139.445V141.825L281.95 139.675L282.04 105.034C281.91 100.131 284.85 81.37 257.78 81.324ZM255.95 111.485C261.24 111.557 267.3 114.161 267.3 120.429C267.33 126.129 260.16 129.194 255.5 129.146C250.84 129.097 244.65 125.48 244.62 119.923C244.71 114.955 250.46 111.357 255.95 111.485ZM290.44 84.526L290.35 141.895L305.2 139.035L305.22 106.508C305.23 101.665 312.15 96.005 320.82 96.096C322.67 92.763 326.13 84.245 326.97 82.307C307.58 82.261 307.34 87.881 303.96 90.645C303.93 85.371 303.95 82.206 303.95 82.206L290.44 84.528V84.526Z" fill="#4D4D4D"/>
<path d="M141.06 30C133.663 48.134 129.202 59.997 120.967 77.593C126.016 82.945 132.213 89.177 142.278 96.217C131.458 91.764 124.078 87.293 118.561 82.655C108.022 104.647 91.509 135.975 58 196.185C84.338 180.985 104.753 171.605 123.78 168.035C122.963 164.515 122.499 160.715 122.53 156.755L122.561 155.905C122.979 139.035 131.756 126.06 142.154 126.941C152.552 127.822 160.632 142.225 160.212 159.095C160.142 162.275 159.782 165.325 159.152 168.155C177.972 171.835 198.172 181.185 224.152 196.185C219.032 186.755 214.452 178.255 210.092 170.155C203.212 164.825 196.042 157.885 181.402 150.375C191.462 152.995 198.662 156.005 204.282 159.375C159.882 76.707 156.289 65.724 141.059 30.005L141.06 30ZM224.98 181.36V176.81H223.28V176.2H227.37V176.81H225.66V181.36H224.98ZM228.08 181.36V176.2H229.11L230.33 179.86C230.45 180.2 230.53 180.45 230.58 180.62C230.64 180.43 230.73 180.16 230.86 179.79L232.09 176.2H233.01V181.36H232.35V177.04L230.85 181.36H230.24L228.74 176.97V181.36H228.08Z" fill="#1793D1"/>
<path d="M518.39 64.809L512.01 66.392L511.14 141.235L517.62 140.145L518.39 64.809Z" fill="#1793D1"/>
<path d="M534.59 86.407L528.98 88.874L528.47 141.535L533.87 140.425L534.59 86.407Z" fill="#1793D1"/>
<path d="M532.48 65.749L527.93 69.396L531.6 73.622L536.15 69.878L532.48 65.749Z" fill="#1793D1"/>
<path d="M551.43 86.601L545.05 87.891L544.53 141.815L551.01 140.135L551.41 105.581C551.47 100.23 559.6 91.854 571.15 91.888C582.71 91.924 585.19 101.61 585.11 102.756L584.58 141.975L590.17 140.775L590.54 101.066C590.67 98.245 588.17 85.66 571.81 85.57C554.97 85.278 551.29 98.379 551.3 97.894L551.43 86.601Z" fill="#1793D1"/>
<path d="M639.3 142.345L645.68 141.055L646.21 87.136L639.89 88.732L639.53 119.68C639.33 130.145 631.13 137.095 619.58 137.065C608.02 137.025 606.87 127.112 606.88 126.04L607.34 86.816L600.56 88.172L600.19 127.883C600.07 130.705 602.56 143.285 618.92 143.385C635.76 143.675 639.44 130.575 639.43 131.055L639.3 142.345Z" fill="#1793D1"/>
<path d="M654.4 90.915L658.91 87.445L674.7 107.835L688.77 88.286L693.36 92.197L677.93 113.323L696.53 139.445L692.1 142.915L674.75 118.483L657.26 142.355L652.58 138.865L671.18 113.16L654.4 90.915Z" fill="#1793D1"/>
<path d="M704.74 133.09V137.75H705.44V133.09H707.19V132.47H703V133.09H704.74Z" fill="#1793D1"/>
<path d="M707.92 132.47V137.75H708.59V133.25L710.12 137.75H710.75L712.29 133.33V137.75H712.96V132.47H712.02L710.76 136.15C710.63 136.52 710.53 136.8 710.47 136.99C710.42 136.82 710.34 136.56 710.22 136.21L708.97 132.47H707.92Z" fill="#1793D1"/>
<path d="M428.64 91.611C428.5 91.543 420.9 82.721 405.62 82.652C391.31 82.414 375.26 87.962 375 111.96C375.13 133.058 390.42 141.308 405.7 141.468C422.06 141.638 428.56 131.238 428.95 130.978C427 129.288 419.69 122.047 419.69 122.047C419.69 122.047 415.13 128.548 406.27 128.63C397.41 128.714 389.71 121.783 389.6 112.111C389.49 102.44 396.68 97.2 406.34 96.776C414.7 96.775 419.52 102.173 419.52 102.173L428.64 91.611ZM447.36 64L433.34 67.295L433.44 142.018L447.25 139.528L447.41 104.362C447.44 100.675 452.74 95.013 461.6 95.192C470.07 95.28 471.96 100.836 471.94 101.538L472.18 142.248L485.8 139.838L485.85 96.674C485.94 92.52 476.75 83.747 461.98 83.685C454.97 83.697 451.08 85.285 449.1 86.457C445.72 89.071 441.85 91.576 438.05 94.773C441.56 90.259 444.51 87.139 447.39 84.818L447.36 64.002V64Z" fill="#4D4D4D"/>
<path d="M368.141 131.477C369.387 128.908 370.009 126.083 369.957 123.23C370.183 119.939 369.508 116.649 368.006 113.711C366.788 111.557 365.061 109.734 362.974 108.4C360.964 107.158 358.76 106.261 356.453 105.744L349.943 104.282C348.202 103.91 346.51 103.34 344.9 102.583C344.259 102.289 343.723 101.81 343.359 101.208C342.994 100.606 342.82 99.909 342.857 99.2072C342.85 96.7993 344.817 95.5954 348.758 95.5954C350.645 95.58 352.514 95.9635 354.241 96.7205C355.63 97.316 356.944 98.0712 358.156 98.9709L367.893 89.1368C365.308 86.8392 362.41 84.9186 359.284 83.4322C355.858 81.7877 352.097 80.9559 348.295 81.0018C345.624 81.0164 342.967 81.395 340.398 82.127C337.848 82.8075 335.446 83.9519 333.313 85.5025C331.184 87.0669 329.457 89.1101 328.269 91.466C326.927 94.2455 326.269 97.3045 326.351 100.389C326.195 103.564 326.896 106.723 328.382 109.536C329.637 111.681 331.361 113.515 333.425 114.903C335.414 116.216 337.617 117.172 339.935 117.728C342.282 118.29 344.448 118.808 346.456 119.258C348.182 119.634 349.872 120.153 351.511 120.811C352.115 121.009 352.639 121.396 353.005 121.915C353.371 122.434 353.559 123.057 353.542 123.691C353.554 124.367 353.389 125.034 353.062 125.626C352.735 126.218 352.259 126.715 351.68 127.067C349.898 128.028 347.88 128.465 345.859 128.327C343.547 128.353 341.252 127.948 339.089 127.134C336.736 126.177 334.59 124.775 332.771 123.005L323.824 135.089C325.573 136.571 327.462 137.878 329.465 138.993C331.237 139.972 333.095 140.785 335.016 141.424C336.877 142.024 338.793 142.439 340.736 142.662C342.804 142.892 344.883 143.005 346.964 142.999C349.981 143.023 352.982 142.567 355.855 141.649C358.516 140.789 360.994 139.447 363.166 137.688C365.246 135.992 366.942 133.875 368.141 131.477Z" fill="#4D4D4D"/>
</svg>
