<svg width="636" height="390" viewBox="0 0 636 390" fill="none" xmlns="http://www.w3.org/2000/svg">
<rect width="636" height="390" fill="white"/>
<path d="M474.144 71.0548C472.939 71.1214 471.668 70.9881 470.263 70.8534C468.656 70.6534 466.983 70.3854 465.309 70.5201C465.243 65.6334 468.187 63.2241 469.995 58.6721C470.128 58.7401 470.195 58.8734 470.263 58.9414C472.939 61.8854 473.876 64.6294 475.081 68.9801C475.416 69.8508 475.215 70.9214 474.144 71.0548V71.0548ZM479.632 34.5214C475.884 34.5214 473.073 34.3961 470.263 34.3961C467.517 34.3961 464.707 34.3961 460.959 34.3961C452.928 56.7054 442.955 75.6828 439.608 90.1388C446.569 90.3388 450.049 90.5028 457.077 90.6361C458.081 87.4908 458.616 85.9654 459.687 82.8201C463.904 82.8201 467.049 83.0281 470.263 83.0948C472.805 83.0948 475.348 83.0321 478.427 82.7641C479.364 85.3068 479.833 88.1201 481.707 90.4628C488.6 90.3961 492.215 90.5294 498.64 90.3961C499.175 90.3294 499.711 90.3294 500.247 90.3294C499.711 88.5228 499.175 86.7534 498.64 84.9468C493.753 69.3521 487.864 54.2654 479.632 34.5214Z" fill="#3E4FAA"/>
<path d="M415.916 36.4534C415.783 35.4494 414.779 34.2441 412.569 34.3774C409.089 34.5121 407.349 34.5121 403.869 34.7121C400.723 44.0161 399.117 48.6334 395.904 57.9374C395.369 58.6721 394.565 60.2121 393.963 57.9374C390.617 48.8348 388.944 44.2827 385.597 35.0467C380.845 35.0467 378.436 35.0467 373.684 34.9801C370.271 54.5241 363.043 75.4054 361.101 90.4641C368.129 91.4681 372.279 90.6654 378.704 90.4641C379.841 83.8388 380.511 78.0161 382.719 71.5908C385.329 75.4054 386.267 80.5748 388.341 85.3281C389.011 86.8668 388.809 91.1001 392.156 91.1001C395.636 91.1001 397.376 91.1001 400.857 91.1001C404.203 84.5934 406.948 74.4174 409.491 70.8708C411.833 73.8161 412.368 86.1894 414.109 90.5388C419.263 91.2081 428.565 90.8361 431.979 90.9708C432.581 91.0374 433.384 90.6174 433.184 90.0814C428.565 71.2747 418.995 51.0428 415.916 36.4534" fill="#3E4FAA"/>
<path d="M369.2 84.1054C370.003 84.2401 370.404 84.3067 371.208 84.4401C375.089 69.9174 377.031 62.6214 380.912 48.0321C386.735 61.1494 390.416 67.8428 395.369 81.4961C395.904 82.9681 396.707 82.3654 397.041 81.4961C401.057 69.3814 403.065 63.2908 407.215 51.0428C407.549 49.9721 407.884 49.0348 408.688 48.4334C413.707 62.6894 416.251 69.8508 421.337 84.1054C422.207 84.1054 422.609 84.1721 423.545 84.2401C418.928 73.7987 414.444 59.9441 408.353 43.7481C403.4 57.4014 400.924 64.2281 395.904 77.8147C389.813 64.1614 386.735 57.3347 380.644 43.6147C376.093 59.8107 373.817 67.9094 369.2 84.1054ZM470.329 41.6054V43.2134C469.927 43.2134 469.525 43.1454 468.991 43.1454C464.104 53.6534 460.959 61.4841 455.672 74.6694C459.755 75.0041 464.841 74.8694 470.329 74.8028V76.5427C464.372 76.7441 459.152 76.8107 454.735 76.4094C453.463 78.8187 452.459 80.2908 450.987 82.9014C450.251 84.1721 449.045 84.5081 449.916 82.5001C457.077 65.9681 459.687 58.2721 467.785 41.2721C468.789 41.4054 469.459 41.4721 470.329 41.6054ZM470.329 76.5427V74.8028C475.081 74.6694 480.1 74.6028 484.987 74.9374C479.699 62.2868 477.089 55.9294 471.801 43.2801C471.199 43.2801 470.797 43.2134 470.329 43.2134V41.6054L471.199 41.6734C472.939 41.8067 473.475 42.0081 474.011 43.3467C480.435 59.1414 483.715 66.9721 490.14 82.7681C490.608 83.9054 489.471 84.3068 488.668 82.7681C487.731 80.6254 487.261 79.6214 486.257 77.4801C485.656 76.5427 484.852 76.4094 483.247 76.2747C478.695 76.3414 474.344 76.4761 470.329 76.5427Z" fill="#FBC907"/>
<path d="M502.12 34.1107C500.781 37.9254 499.644 40.4681 498.64 43.8147C498.104 45.6894 497.569 47.7641 497.033 50.5081C497.501 50.5747 498.104 50.5747 498.64 50.5747C503.057 50.5747 508.747 48.9174 511.757 50.4574C511.892 64.9814 511.892 75.2974 509.817 91.1001C518.183 91.1001 522.332 91.1001 530.699 91.1001C529.761 83.6628 528.757 66.3201 530.497 50.9254C534.648 50.9254 538.061 52.0894 540.872 52.2228C542.344 46.6014 544.285 41.2254 544.888 35.4694C527.955 35.3361 511.892 36.0507 502.12 34.1107" fill="#3E4FAA"/>
<path d="M507.968 43.6775C512.452 43.7441 514.727 43.8108 519.212 43.9455C519.279 59.9415 519.279 67.9055 519.345 83.9015H522.223C522.223 68.0961 522.289 60.1324 522.419 44.5138L522.424 43.9455C526.975 43.9455 529.317 44.0121 533.936 44.0788C534.805 43.0081 535.208 42.4721 536.077 41.3348C527.176 41.2015 522.692 41.1335 513.723 41.0001C511.18 41.2681 509.908 41.4681 507.365 41.6694C506.561 41.8028 507.231 43.6775 507.968 43.6775Z" fill="#FBC907"/>
<path d="M556.087 34.0001C554.748 37.8148 553.611 40.3575 552.607 43.7042C552.071 45.5788 551.536 47.6535 551 50.3975C551.468 50.4641 552.071 50.4641 552.607 50.4641C557.024 50.4641 562.713 48.8068 565.724 50.3468C565.859 64.8708 565.859 75.1868 563.784 90.9895C572.149 90.9895 576.299 90.9895 584.665 90.9895C583.728 83.5522 582.724 66.2095 584.464 50.8148C588.615 50.8148 592.028 51.9788 594.839 52.1122C596.311 46.4908 598.252 41.1148 598.855 35.3588C581.921 35.2255 565.859 35.9401 556.087 34.0001" fill="#3E4FAA"/>
<path d="M561.935 43.5669C566.419 43.6335 568.693 43.7002 573.179 43.8349C573.245 59.8309 573.245 67.7949 573.312 83.7909H576.189C576.189 67.9855 576.256 60.0218 576.386 44.4032L576.391 43.8349C580.941 43.8349 583.284 43.9015 587.903 43.9682C588.772 42.8975 589.175 42.3615 590.044 41.2242C581.143 41.0909 576.659 41.0229 567.689 40.8895C565.147 41.1575 563.875 41.3575 561.332 41.5588C560.528 41.6922 561.197 43.5669 561.935 43.5669Z" fill="#FBC907"/>
<path d="M610.973 23H610.907C607.159 23 604.147 26.012 604.147 29.6934C604.147 33.4414 607.159 36.4534 610.907 36.4534H610.973V35.716H610.907C607.628 35.716 604.951 33.0387 604.951 29.6934C604.951 26.48 607.628 23.8041 610.907 23.8041H610.973V23ZM607.828 25.0747H610.973V26.0787H608.965V29.0907H610.973V30.0947H610.907H609.033V33.7747H607.828V25.0747ZM610.973 36.4534C614.655 36.4534 617.667 33.4414 617.667 29.6934C617.667 26.012 614.655 23 610.973 23V23.8041C614.253 23.8707 616.864 26.48 616.864 29.6934C616.864 33.0387 614.253 35.6494 610.973 35.716V36.4534ZM610.973 25.0747H611.175C611.711 25.0747 612.179 25.0747 612.447 25.1414C612.713 25.208 612.915 25.276 613.116 25.4094C613.517 25.6107 613.785 25.8774 613.919 26.2134C614.187 26.6147 614.253 27.0827 614.253 27.5507C614.253 28.02 614.187 28.3547 613.919 28.6894C613.785 29.0907 613.451 29.292 613.048 29.492C613.383 29.6254 613.651 29.76 613.785 30.028C613.919 30.1614 613.985 30.6294 614.052 31.1654L614.187 32.5707C614.187 32.8387 614.253 33.1054 614.253 33.3067C614.32 33.3734 614.387 33.508 614.521 33.5747V33.7747H613.183C613.048 33.6414 612.981 33.3067 612.915 32.7041V32.6374L612.848 31.5C612.781 30.8974 612.713 30.5627 612.513 30.3627C612.312 30.228 611.777 30.0947 610.973 30.0947V29.0907H611.041C611.711 29.0907 612.245 28.956 612.58 28.6894C612.848 28.488 613.048 28.1534 613.048 27.5507C613.048 27.016 612.848 26.6147 612.58 26.48C612.312 26.2134 611.777 26.0787 611.041 26.0787H610.973V25.0747" fill="#3E4FAA"/>
<path d="M24.3262 51.4469C26.6735 47.3925 31.4961 39.2837 32.0082 39.2837L39.0501 40.564C37.3429 44.1916 33.8007 51.5749 33.2885 52.087C32.7764 52.5992 39.4768 66.8109 42.8911 73.8528L34.5689 85.3758L27.527 84.0955L32.0082 70.0118L24.3262 51.4469Z" fill="#FBC907"/>
<path d="M65.9372 44.405C69.5648 42.4845 76.9481 38.6435 77.4602 38.6435L85.1422 44.405L76.1799 48.8862L65.297 59.7691L67.8577 70.652L83.8619 80.8947L79.3807 87.9365L69.138 83.4553L57.615 73.2126L56.3346 59.1289L65.9372 44.405Z" fill="#FBC907"/>
<path d="M102.427 86.016L100.506 37.3632H109.469L112.67 56.5682H135.075V39.2837L144.678 38.6435V85.3758L135.716 86.016L135.075 66.1708L112.67 64.8904C112.029 71.2921 110.749 84.3516 110.749 85.3758C110.749 86.4001 105.201 86.2294 102.427 86.016Z" fill="#FBC907"/>
<path d="M167.724 86.016L157.481 85.3758L178.607 39.9238H191.41L208.055 87.2964L199.092 87.9365L195.892 78.9742L171.565 79.6143L167.724 86.016Z" fill="#FBC907"/>
<path d="M227.26 46.9657C232.381 44.405 242.752 39.1556 243.264 38.6435L247.745 45.6854L231.741 55.9281L231.101 68.7314L247.745 79.6143L242.624 87.9365L225.339 76.4135L218.938 61.6896L227.26 46.9657Z" fill="#FBC907"/>
<path d="M266.31 86.6562L265.67 38.6435H274.632L275.913 56.5682L300.239 55.2879L300.879 38.6435H310.482C310.994 38.6435 309.842 70.652 309.201 86.6562L300.879 86.016L300.239 66.8109L275.272 65.5306C274.846 72.5725 274.12 86.6562 274.632 86.6562H266.31Z" fill="#FBC907"/>
<path d="M175.406 71.292L183.088 55.928H185.009L191.41 72.5724L175.406 71.292Z" fill="white"/>
<path d="M46.2712 73.2127C46.4248 65.9148 37.9746 57.0804 38.2819 52.0871C38.666 47.3242 43.7361 41.1786 46.0407 39.3349C48.4222 37.4144 47.4235 36.8767 45.2725 36.4926C43.2752 36.0317 34.7482 34.6489 33.1349 34.3416C32.2899 34.188 30.8303 32.7284 28.9866 34.7257C27.143 36.723 19 43.6369 19 52.4712C19 57.0804 21.8424 60.3069 24.0701 64.1479C25.6065 66.7598 26.7588 69.9862 26.7588 72.5213C26.7588 77.2073 22.1496 82.2007 20.69 83.1993C19.3073 84.198 19.0768 85.5039 21.151 86.1953C23.3019 86.8867 31.829 89.6522 32.9813 90.0363C34.2872 90.4973 34.7482 90.9582 36.2846 89.8059C37.8978 88.6536 46.1944 80.8947 46.2712 73.2127ZM38.0514 72.9054C36.9759 77.361 36.8991 77.8987 34.4409 80.8947C31.9826 83.8907 32.4436 82.7384 31.9058 82.5079C30.984 82.2007 30.6767 81.9702 31.9826 80.2033C33.4422 78.3596 35.7468 74.9027 35.4395 72.0604C35.1323 69.218 32.5972 65.3002 31.9058 63.4565C31.1376 61.6128 27.6039 56.0818 27.6039 52.4712C27.6039 49.4752 30.3694 43.8673 32.4436 42.1773C33.0581 41.7164 34.0568 39.9495 34.9786 40.6409C36.2846 41.4859 35.9773 41.4859 34.1336 43.6369C32.2899 45.7878 30.2926 48.0156 30.2926 52.1639C30.2926 57.7718 38.8965 69.0644 38.0514 72.9054Z" fill="#3E4FAA"/>
<path d="M90.1062 44.4819C88.493 42.5614 85.8042 38.5667 82.6546 34.6489C81.4255 33.0357 80.6573 32.4211 77.1236 33.6502C71.8229 35.4171 50.7742 44.1746 50.7742 63.6102C50.7742 73.9041 59.0708 80.5106 65.7542 84.8126C70.3634 87.8085 74.8958 89.9595 77.1236 90.9582C79.0441 91.8032 81.1182 93.186 83.1155 90.0363C85.1129 86.8867 89.2612 81.1252 89.7989 80.6643C91.1048 79.512 91.9499 77.5914 87.6479 77.0537C82.6546 76.516 70.517 69.9862 70.8243 62.3042C71.0547 57.3877 76.7394 51.0884 88.6466 48.0156C92.334 47.0938 90.9512 45.4806 90.1062 44.4819ZM78.9672 81.7397C80.1964 82.7384 78.66 83.6603 78.0454 83.4298C77.2772 83.1225 77.2004 82.9689 76.3553 82.5079C75.2799 81.8166 59.1476 74.5186 59.2244 62.3042C59.2244 57.4645 63.5264 48.5534 76.9699 41.87C80.5805 40.1031 81.1182 42.7918 77.8149 43.8673C72.9753 45.6342 61.2986 54.4685 61.3754 62.7651C61.4522 68.6035 66.9833 75.1332 76.9699 80.5106C78.4295 81.2788 78.5063 81.3556 78.9672 81.7397Z" fill="#3E4FAA"/>
<path d="M149.423 88.1926C149.423 85.6576 149.423 82.892 149.423 76.2087C149.423 69.5253 149.192 36.1853 149.192 35.033C149.192 33.8807 148.424 34.3416 147.349 34.3416C146.196 34.3416 136.44 34.0343 134.443 33.8807C132.446 33.7271 131.754 33.7271 131.754 36.0317C131.754 38.3363 131.754 49.9361 131.908 50.6275C131.985 51.3189 131.985 53.0858 129.142 53.0858C126.3 53.0858 119.309 53.4699 117.466 53.4699C116.621 53.4699 115.699 53.6235 115.468 51.0884C115.161 48.1693 113.778 36.4926 113.855 35.7244C114.009 34.188 113.855 33.7271 112.011 33.7271C109.63 33.7271 100.411 33.6502 98.7215 33.6502C96.5705 33.6502 95.7255 33.4966 95.8791 36.1853C96.0327 38.874 97.0314 59.2314 97.0314 60.4605C97.0314 61.7665 97.4155 87.6549 97.0314 88.6536C96.4937 89.8827 97.5692 90.8045 100.181 90.6509C102.716 90.4973 107.863 90.8045 108.862 90.8045C109.86 90.8045 111.55 90.6509 112.472 90.6509C113.317 90.6509 113.855 90.4973 113.701 88.8072C113.548 87.0403 114.546 77.361 114.854 71.369L131.14 71.7531C131.447 76.516 130.986 87.0403 130.986 88.039C130.986 89.0377 130.141 90.9582 132.599 90.6509C135.057 90.3436 145.582 90.4973 146.888 90.4973C148.194 90.4973 149.423 90.8045 149.423 88.1926ZM142.048 44.4819C142.048 46.1719 141.587 80.357 141.587 81.5093C141.587 82.6616 141.741 83.8139 140.281 83.8139C139.052 83.8139 138.898 82.5079 138.898 80.6643C138.898 78.7438 138.822 68.2194 138.898 62.7651C131.14 62.7651 112.78 62.5347 110.475 62.4578C108.554 62.381 107.863 61.0751 107.709 66.4525C107.556 71.9067 107.556 80.2033 107.402 81.202C107.325 82.2007 107.018 83.353 106.019 83.353C105.021 83.353 105.328 82.6616 105.174 81.5093C105.021 80.357 105.174 65.0697 105.328 62.9188C105.405 60.7678 104.713 45.1733 104.713 44.021C104.56 42.8687 104.176 40.8713 105.328 40.7945C106.403 40.6409 107.018 40.6409 107.172 43.176C107.325 45.7878 107.556 57.7718 107.556 58.9241C107.556 60.0764 107.709 60.6142 109.86 60.6142C112.011 60.6142 135.595 60.6142 137.439 60.6142C139.283 60.6142 139.59 59.6155 139.59 58.9241C139.59 58.2327 139.743 43.6369 139.743 43.176C139.743 42.7919 139.283 41.025 140.589 41.025C142.279 41.025 142.048 42.7918 142.048 44.4819Z" fill="#3E4FAA"/>
<path d="M212.853 88.8072C211.854 86.1953 210.087 80.8179 209.55 79.4351C200.792 56.389 195.261 39.7959 193.725 36.1085C193.187 34.6489 188.731 35.1866 183.584 35.1098C179.283 35.033 174.673 33.8039 173.982 36.5694C173.291 39.1045 160.385 70.524 154.47 84.198C153.471 86.4258 152.011 90.2668 154.47 90.3436C158.311 90.4204 171.447 90.8814 171.831 89.8059C172.599 87.5013 173.444 83.5834 174.366 82.9689C176.056 81.9702 184.967 82.8152 189.73 82.5079C192.035 82.3543 192.265 85.5039 193.187 87.5013C193.571 88.1926 193.725 90.5741 195.108 90.4973C199.409 90.3436 207.091 90.8045 210.395 90.3436C212.162 90.0363 213.698 90.9582 212.853 88.8072ZM202.636 81.3556C203.865 85.1198 201.176 83.353 200.869 82.6616C200.331 81.1252 199.486 79.4351 199.025 78.206C198.795 77.4378 198.872 76.8232 195.876 77.2073C192.342 77.6683 177.9 77.361 170.448 77.0537C169.45 76.9769 167.913 76.2087 167.145 78.7438C166.454 81.3556 166.3 81.4325 165.993 82.2007C165.455 83.8907 162.536 84.6589 164.149 80.2033C166.146 74.8259 173.444 58.9241 179.743 44.9428C180.665 42.8687 180.358 42.0236 182.739 41.87C183.508 41.87 184.429 41.87 185.428 42.0236C186.427 42.2541 187.195 41.4859 187.733 42.8687C191.574 52.7017 198.564 69.2949 202.636 81.3556ZM196.721 71.7531C194.877 67.2207 190.191 55.3136 187.041 47.4779C186.427 45.9415 186.504 43.9442 184.353 43.7905C181.741 43.4832 181.587 45.5574 180.742 47.6315C179.82 49.8593 171.14 69.4485 170.755 70.524C170.064 72.1372 166.607 75.5173 172.906 75.21C178.591 74.9027 192.649 75.5173 194.186 75.5173C196.644 75.5173 198.488 75.9782 196.721 71.7531ZM188.501 68.2194C189.039 70.0631 189.576 70.6008 187.195 70.9081C184.737 71.2154 185.198 71.2154 183.892 71.2154C182.432 71.2154 181.587 70.9849 180.358 70.7544C178.975 70.524 177.516 71.8299 179.436 67.4512C181.357 63.3797 181.587 62.6115 182.432 60.7678C183.124 59.3082 183.892 56.7731 185.428 60.6142C187.041 64.4552 188.347 67.6048 188.501 68.2194Z" fill="#3E4FAA"/>
<path d="M254.85 44.4819C253.236 42.5614 250.548 38.5667 247.398 34.6489C246.169 33.0357 245.401 32.4211 241.867 33.6502C236.566 35.4171 215.518 44.1746 215.518 63.6102C215.518 73.9041 223.814 80.5106 230.498 84.8126C235.107 87.8085 239.639 89.9595 241.867 90.9582C243.788 91.8032 245.862 93.186 247.859 90.0363C249.856 86.8867 254.005 81.1252 254.542 80.6643C255.848 79.512 256.693 77.5914 252.391 77.0537C247.398 76.516 235.261 69.9862 235.568 62.3042C235.798 57.3877 241.483 51.0884 253.39 48.0156C257.077 47.0938 255.695 45.4806 254.85 44.4819ZM243.711 81.7397C244.94 82.7384 243.403 83.6603 242.789 83.4298C242.021 83.1225 241.944 82.9689 241.099 82.5079C240.023 81.8166 223.891 74.5186 223.968 62.3042C223.968 57.4645 228.27 48.5534 241.713 41.87C245.324 40.1031 245.862 42.7918 242.558 43.8673C237.719 45.6342 226.042 54.4685 226.119 62.7651C226.196 68.6035 231.727 75.1332 241.713 80.5106C243.173 81.2788 243.25 81.3556 243.711 81.7397Z" fill="#3E4FAA"/>
<path d="M314.166 88.1926C314.166 85.6576 314.166 82.892 314.166 76.2087C314.166 69.5253 313.936 36.1853 313.936 35.033C313.936 33.8807 313.168 34.3416 312.092 34.3416C310.94 34.3416 301.184 34.0343 299.186 33.8807C297.189 33.7271 296.498 33.7271 296.498 36.0317C296.498 38.3363 296.498 49.9361 296.651 50.6275C296.728 51.3189 296.728 53.0858 293.886 53.0858C291.043 53.0858 284.053 53.4699 282.209 53.4699C281.364 53.4699 280.442 53.6235 280.212 51.0884C279.905 48.1693 278.522 36.4926 278.599 35.7244C278.752 34.188 278.599 33.7271 276.755 33.7271C274.373 33.7271 265.155 33.6502 263.465 33.6502C261.314 33.6502 260.469 33.4966 260.623 36.1853C260.776 38.874 261.775 59.2314 261.775 60.4605C261.775 61.7665 262.159 87.6549 261.775 88.6536C261.237 89.8827 262.313 90.8045 264.925 90.6509C267.46 90.4973 272.607 90.8045 273.605 90.8045C274.604 90.8045 276.294 90.6509 277.216 90.6509C278.061 90.6509 278.599 90.4973 278.445 88.8072C278.291 87.0403 279.29 77.361 279.597 71.369L295.883 71.7531C296.19 76.516 295.729 87.0403 295.729 88.039C295.729 89.0377 294.884 90.9582 297.343 90.6509C299.801 90.3436 310.325 90.4973 311.631 90.4973C312.937 90.4973 314.166 90.8045 314.166 88.1926ZM306.792 44.4819C306.792 46.1719 306.331 80.357 306.331 81.5093C306.331 82.6616 306.484 83.8139 305.025 83.8139C303.796 83.8139 303.642 82.5079 303.642 80.6643C303.642 78.7438 303.565 68.2194 303.642 62.7651C295.883 62.7651 277.523 62.5347 275.218 62.4578C273.298 62.381 272.607 61.0751 272.453 66.4525C272.299 71.9067 272.299 80.2033 272.146 81.202C272.069 82.2007 271.762 83.353 270.763 83.353C269.764 83.353 270.072 82.6616 269.918 81.5093C269.764 80.357 269.918 65.0697 270.072 62.9188C270.148 60.7678 269.457 45.1733 269.457 44.021C269.303 42.8687 268.919 40.8713 270.072 40.7945C271.147 40.6409 271.762 40.6409 271.915 43.176C272.069 45.7878 272.299 57.7718 272.299 58.9241C272.299 60.0764 272.453 60.6142 274.604 60.6142C276.755 60.6142 300.339 60.6142 302.182 60.6142C304.026 60.6142 304.333 59.6155 304.333 58.9241C304.333 58.2327 304.487 43.6369 304.487 43.176C304.487 42.7919 304.026 41.025 305.332 41.025C307.022 41.025 306.792 42.7918 306.792 44.4819Z" fill="#3E4FAA"/>
<path d="M303.113 313.003C248.03 313.003 203.054 268.027 203.054 212.877C203.054 157.728 248.03 112.751 303.113 112.751V109.807L299.566 105.121L292.939 113.087L283.637 105.724L276.542 116.097L271.389 110.075L265.967 119.109L255.861 115.027L254.189 125.133L244.685 121.653L243.613 131.357L233.507 130.488L232.437 140.593L223.401 138.92L222.933 151.168L211.957 151.369L215.169 162.815L206.802 163.216L208.945 173.991L201.181 176.601L205.263 184.565L199.441 186.239L203.791 193.601L196.027 195.944L203.322 203.507L193.684 209.531L202.719 215.956L195.157 220.708L202.921 225.46L196.429 232.755L204.193 236.771L197.968 243.061L208.074 244.535L202.05 252.966L211.755 255.511L207.405 264.813L217.31 265.884L213.897 275.523L224.873 277.263L220.991 285.025L233.909 286.297V298.612L243.814 294.731L243.613 305.239L256.933 302.695L256.129 312.6L268.177 309.589L274.199 318.624L283.034 313.872L289.929 321.636L299.834 315.412L303.113 318.021V313.003ZM303.113 112.751C358.329 112.751 403.305 157.728 403.305 212.877C403.305 268.027 358.329 313.003 303.113 313.003V318.021L308.334 322.037L316.499 313.471L325.333 319.695L330.955 309.789L342.401 316.884L346.215 306.978L356.79 311.529L356.99 298.813L368.435 303.297L370.377 292.789H379.211V282.215L388.046 281.346L387.377 269.966L398.353 268.027L395.341 257.452L403.974 256.849L399.222 248.015L408.459 245.404L402.837 237.239L410.601 234.628L403.974 226.932L411.27 221.377L403.974 214.283L411.47 208.66L405.647 203.039L413.411 198.085L403.707 192.932L411.47 185.637L400.494 180.885L407.187 173.121L395.742 170.109L398.554 161.476L389.919 158.263L394.069 149.027L381.353 149.629L381.955 137.583L370.778 139.121L371.246 128.145L361.341 130.956L359.401 119.98L348.625 123.393L347.754 114.759L335.038 118.039L331.157 107.464L319.979 113.889L315.897 104.452L305.121 112.417L303.113 109.807V112.751" fill="#ED1D24"/>
<path d="M320.917 199.023C322.991 199.023 324.397 196.547 325.802 194.539C326.471 195.275 326.939 195.944 327.207 196.68C327.81 198.085 327.743 199.692 327.542 201.565C327.475 202.035 327.409 202.436 327.207 202.837C326.137 205.448 322.723 206.72 321.853 204.912C320.849 202.837 320.782 201.031 320.917 199.023ZM364.219 282.616C363.483 283.219 362.746 283.888 362.01 284.424C361.475 284.892 360.873 285.36 360.337 285.829C358.931 286.9 357.593 287.904 356.121 288.908C355.986 289.041 355.853 289.108 355.719 289.242C354.113 286.297 352.573 284.156 351.302 282.015C350.901 281.346 350.498 280.742 350.163 280.073C348.825 277.731 347.687 275.12 346.885 271.507C348.155 271.037 349.159 270.703 350.163 270.368C350.566 270.235 350.901 270.101 351.302 269.966C352.573 269.499 353.845 268.963 355.585 268.027C355.786 267.892 355.986 267.759 356.121 267.692C357.459 266.821 358.53 265.416 358.062 263.14C357.593 261.199 358.329 258.858 359.467 257.452C359.802 257.049 360.07 256.648 360.337 256.247C360.939 255.109 361.141 253.971 360.605 252.632C360.07 251.227 360.471 249.287 361.877 248.617L362.01 248.483C364.085 247.412 363.951 245.605 364.219 243.797C364.286 242.727 364.554 241.589 365.357 240.519C367.231 238.109 369.506 235.297 366.963 232.621L366.212 232.353H365.49C365.022 232.487 364.554 232.688 364.219 232.821C363.349 233.223 362.679 233.692 362.01 234.295C361.475 234.829 360.873 235.432 360.337 236.235C359.935 236.636 359.601 237.172 359.133 237.708C358.262 238.979 357.258 240.117 356.121 241.053C354.715 242.459 353.109 243.531 351.302 244.4C350.901 244.601 350.566 244.735 350.163 244.936C348.223 245.739 346.149 246.275 343.806 246.609C344.006 242.527 343.806 240.251 343.806 240.251L341.953 239C336.866 243.752 335.038 245.337 329.951 249.956C329.014 248.684 328.078 247.346 327.207 246.14C320.849 237.305 315.762 230.813 308.467 225.125C310.81 218.299 311.947 214.884 313.955 208.593C311.078 208.727 310.943 215.553 308.199 217.428C307.062 218.231 306.593 219.569 306.526 221.444C306.393 223.853 306.326 225.057 306.258 227.467C306.058 230.948 302.31 231.215 301.641 228.204C300.971 225.057 300.637 223.519 299.967 220.573C292.203 220.908 288.991 215.287 291.133 209.865C294.211 211.003 302.377 211.873 301.439 208.861C297.558 208.995 291.802 209.263 293.141 207.255C294.078 206.251 294.747 205.716 295.951 204.577C298.562 205.313 300.703 205.113 303.983 205.448C304.921 208.727 308.935 206.585 310.81 203.172C306.125 203.172 302.778 203.305 298.094 203.573C297.826 202.101 297.826 200.896 298.562 199.424C297.491 199.625 297.022 199.759 295.951 199.96C294.078 200.896 293.677 199.424 294.211 197.416C295.149 194.271 294.814 191.527 295.417 187.98C295.885 184.767 298.762 185.101 299.967 187.109C302.51 191.059 308.467 190.791 314.223 187.444C315.897 186.373 317.369 187.377 318.105 188.515C319.443 190.656 321.117 193.133 319.243 195.809C317.703 198.085 317.503 200.629 318.774 203.44C321.318 208.593 324.731 209.531 327.207 207.791C330.286 205.648 331.893 199.424 328.211 192.263C336.913 189.987 343.739 188.313 350.163 185.837C350.498 185.704 350.901 185.569 351.302 185.436C352.907 184.767 354.514 184.031 356.121 183.295C357.526 182.625 358.931 181.889 360.337 181.085C360.873 180.751 361.475 180.416 362.01 180.081C362.746 179.68 363.483 179.212 364.219 178.743C365.893 177.672 367.633 176.4 369.506 175.063C371.915 173.255 375.397 169.44 366.562 170.511C365.758 170.577 364.955 170.712 364.219 170.779C363.483 170.845 362.746 170.98 362.01 171.047C361.475 171.113 360.873 171.18 360.337 171.247C358.865 171.448 357.526 171.649 356.121 171.783C354.514 172.051 352.907 172.317 351.302 172.585C350.901 172.652 350.498 172.652 350.163 172.72C343.405 173.924 336.913 175.464 328.211 178.275C327.877 178.341 327.542 178.552 327.207 178.685C313.018 183.103 301.842 184.987 290.195 184.987C289.526 184.987 288.857 184.987 288.187 184.987C286.582 184.987 284.975 184.909 283.369 184.843C282.298 184.776 281.227 184.737 280.223 184.671C277.011 184.471 273.798 184.251 270.318 183.916C266.703 183.581 262.822 183.237 258.739 182.768C263.491 181.163 266.637 180.087 270.318 178.748C271.991 178.212 273.798 177.541 275.939 176.804C277.413 176.872 278.818 176.745 280.223 176.745C281.294 176.745 282.298 176.62 283.369 176.62C284.975 176.62 286.582 176.62 288.187 176.62C288.857 176.62 289.526 176.744 290.195 176.744C303.917 176.409 315.026 174.632 327.207 171.821C331.893 170.683 336.778 169.527 341.931 168.188C335.909 168.321 332.361 168.479 327.207 168.68L323.393 168.825C319.31 149.551 316.967 138.713 311.211 121.38C316.699 121.848 322.054 122.788 327.207 124.127C335.373 126.335 343.07 129.549 350.163 133.765C350.498 133.967 350.901 134.235 351.302 134.436C352.975 135.439 354.581 136.511 356.121 137.581C357.593 138.585 358.931 139.589 360.337 140.661C360.873 141.129 361.475 141.597 362.01 142.065C362.746 142.668 363.483 143.271 364.219 143.94C383.561 160.873 395.809 185.704 395.809 213.279C395.809 240.787 383.561 265.684 364.219 282.616ZM330.687 276.459C329.149 278.533 328.479 279.872 327.207 281.88C327.074 282.081 327.006 282.281 326.873 282.483C324.999 285.428 322.657 284.825 322.389 281.747C321.653 274.719 321.251 270.168 321.653 263.408C323.927 260.329 325.401 258.321 327.207 255.846L329.683 252.499C330.822 250.892 331.29 250.023 332.695 248.751C336.109 245.471 337.782 243.797 341.262 240.519C341.865 239.983 343.203 240.585 343.137 241.456C342.935 243.396 342.802 244.4 342.601 246.408C342.467 247.279 341.463 246.944 340.727 247.279C340.191 247.546 340.727 248.952 341.262 248.751C344.877 247.412 347.153 246.609 350.163 245.605L351.302 245.204C351.971 244.936 352.707 244.735 353.443 244.4C354.447 243.597 355.318 242.995 356.121 242.325C356.99 241.723 357.727 241.053 358.329 240.251C359.066 239.247 359.667 238.376 360.337 237.573C360.806 236.837 361.407 236.235 362.01 235.565C362.411 235.164 362.814 234.829 363.349 234.428C363.483 234.295 363.817 234.16 364.219 234.027C365.825 233.491 368.637 233.625 366.562 236.704C365.758 238.041 364.955 239.38 364.219 240.652C363.483 241.791 362.814 242.928 362.01 244.065C361.475 244.87 360.939 245.672 360.337 246.475C359.133 247.88 357.794 249.287 356.121 250.491C355.653 250.892 355.117 251.227 354.581 251.561C353.242 252.432 351.971 254.239 352.975 256.18C354.314 258.388 355.518 259.392 356.121 261.801L356.187 261.936C356.522 263.275 356.589 264.479 356.121 265.416C355.853 266.152 355.25 266.688 354.314 267.023C353.31 267.424 352.306 267.825 351.302 268.16C350.901 268.293 350.498 268.428 350.163 268.561C346.014 270.033 341.597 271.372 336.243 271.908C332.963 272.242 331.959 274.719 330.687 276.459ZM288.522 201.968C288.389 201.968 288.255 201.968 288.187 201.9C288.054 201.767 288.054 201.499 288.187 201.231C288.389 200.696 288.79 200.093 289.125 199.692C289.526 199.089 289.861 198.621 290.195 198.287C290.597 197.885 291.066 197.684 291.669 197.684C292.806 197.684 292.137 199.424 291.534 200.227C291.199 200.763 290.731 201.231 290.195 201.499C289.661 201.833 289.125 201.968 288.522 201.968ZM286.715 197.952C285.711 200.227 284.774 200.227 283.369 199.692C283.235 199.625 283.169 199.625 283.101 199.559C281.695 198.956 280.893 198.22 280.223 197.148C279.889 196.68 279.554 196.144 279.286 195.543C277.814 192.865 278.417 190.724 280.223 189.72C281.026 189.317 282.098 189.051 283.369 189.184C283.503 189.184 283.703 189.184 283.838 189.251C285.913 189.519 286.447 190.924 288.187 192.061L288.255 192.129L288.187 192.196C285.778 193.133 287.653 195.676 286.715 197.952ZM272.191 199.96C273.933 200.896 275.27 202.369 276.81 203.44C276.207 205.849 275.673 207.723 273.933 209.464C272.861 210.468 271.322 210.2 270.318 209.129C270.117 208.861 269.983 208.593 269.85 208.259C269.046 206.652 268.979 204.444 270.318 202.235C270.786 201.432 271.389 200.696 272.191 199.96ZM281.695 215.688C281.495 216.692 281.026 217.763 280.223 218.565C279.219 219.503 277.747 219.904 275.939 218.9C274.401 218.031 272.393 217.295 270.318 217.896C269.715 218.097 269.113 218.432 268.511 218.9C265.433 221.243 264.495 222.313 261.082 225.46C257.133 229.007 252.515 228.471 247.361 233.692L246.558 234.495C237.322 243.999 232.57 249.487 223.669 259.058C215.705 245.539 211.219 229.944 211.219 213.279C211.219 184.031 225.074 157.795 246.558 140.861C253.719 135.239 261.751 130.621 270.318 127.275C273.062 126.271 275.873 125.335 278.685 124.531C276.074 142.736 274.534 153.779 275.07 173.389C273.463 173.724 271.857 173.991 270.318 174.259C260.881 175.999 254.054 177.204 246.558 178.944C242.275 179.948 237.723 181.085 232.302 182.692C224.873 184.833 223.937 187.577 230.161 189.117C235.85 190.589 241.203 191.325 246.558 191.795C253.987 192.464 261.483 192.597 270.318 193.065L271.054 193.133C271.255 195.007 271.455 195.877 271.657 197.684C271.187 198.019 270.719 198.353 270.318 198.688C265.566 202.904 267.173 209.329 270.318 211.404C272.995 213.144 276.677 212.007 278.751 204.377C279.286 205.113 279.755 205.783 280.223 206.452C281.763 209.196 282.365 212.073 281.695 215.688ZM364.219 137.916C363.483 137.315 362.746 136.779 362.01 136.244C361.475 135.775 360.873 135.373 360.337 134.905C358.931 133.901 357.526 132.964 356.121 132.027C354.581 131.023 352.907 130.019 351.302 129.083C350.901 128.881 350.498 128.68 350.163 128.48C343.002 124.464 335.306 121.385 327.207 119.377C319.645 117.436 311.679 116.365 303.447 116.365C299.03 116.365 294.546 116.7 290.195 117.303C289.526 117.436 288.857 117.504 288.187 117.637C286.582 117.905 284.975 118.172 283.369 118.508C282.298 118.775 281.227 118.976 280.223 119.244C276.81 120.113 273.53 121.117 270.318 122.323C261.818 125.401 253.854 129.751 246.558 135.039C222.397 152.708 206.669 181.22 206.669 213.279C206.669 245.271 222.397 273.781 246.558 291.451C253.854 296.739 261.818 301.089 270.318 304.235C273.53 305.372 276.81 306.376 280.223 307.247C281.227 307.515 282.298 307.715 283.369 307.983C284.975 308.317 286.582 308.585 288.187 308.852C288.857 308.987 289.526 309.053 290.195 309.187C294.546 309.789 299.03 310.124 303.447 310.124C311.679 310.124 319.645 309.053 327.207 307.112C335.306 305.104 343.002 302.025 350.163 298.077C350.498 297.876 350.901 297.608 351.302 297.408C352.907 296.471 354.581 295.466 356.121 294.463C357.526 293.525 358.931 292.589 360.337 291.585C360.873 291.184 361.475 290.715 362.01 290.313C362.746 289.711 363.483 289.176 364.219 288.573C386.238 270.771 400.427 243.597 400.427 213.279C400.427 182.96 386.238 155.72 364.219 137.916Z" fill="#3E4FAA"/>
<path d="M341.953 248C342.214 246.436 341.409 248.045 342.453 248L342.953 247L344.094 242.685C345.985 238.056 347.547 234.201 347.565 234.116C347.589 234.002 347.312 233.913 346.558 233.786C345.395 233.592 344.961 233.343 344.819 232.791C344.7 232.325 344.762 232.007 345.049 231.616C345.34 231.219 345.561 231.154 346.449 231.207L347.143 231.249L345.849 229.042L344.556 226.833L344.692 225.982L344.828 225.13L347.895 222.471L350.962 219.811L351.209 218.343L351.456 216.874L349.876 216.61L348.296 216.346L348.6 214.533L348.903 212.721L350.483 212.985L352.062 213.25L352.334 211.625L352.606 210L354.368 210.295L356.13 210.59L355.858 212.215L355.586 213.839L357.105 214.094L358.624 214.348L358.32 216.16L358.017 217.972L356.498 217.718L354.979 217.464L354.722 219.003L354.464 220.543L356.45 223.975L358.437 227.407L358.288 228.257L358.139 229.106L356.197 230.774L354.256 232.439L354.987 232.636C355.902 232.88 356.089 233.008 356.237 233.488C356.385 233.97 356.331 234.31 356.037 234.711C355.702 235.169 355.256 235.242 354.031 235.037C353.433 234.937 352.937 234.897 352.929 234.948C352.921 235.001 353.17 239.161 353.481 244.194L352.953 244L351.453 244.936C352.478 245.294 349.219 244.405 348.953 246H347.953L344.453 247.279L341.453 248H341.953Z" fill="#3E4FAA"/>
<path d="M303.247 313.537V313.637C358.719 313.637 403.941 268.416 403.941 213.077C403.941 157.605 358.719 112.384 303.247 112.383C247.907 112.384 202.686 157.605 202.686 213.077C202.687 268.416 247.907 313.637 303.247 313.637V313.537V313.437C275.633 313.437 250.543 302.154 232.357 283.968C214.17 265.781 202.887 240.692 202.887 213.077C202.887 185.397 214.17 160.273 232.357 142.071C250.543 123.867 275.633 112.584 303.247 112.584C330.927 112.584 356.05 123.867 374.254 142.071C392.458 160.273 403.741 185.396 403.741 213.077C403.741 240.692 392.458 265.781 374.254 283.968C356.05 302.154 330.927 313.437 303.247 313.437V313.537Z" fill="#100F0D"/>
<path d="M98.6459 297.742C98.1105 298.478 97.8428 298.813 97.1063 299.416C96.9057 299.616 96.6381 299.817 96.3704 299.951C95.3663 300.553 94.1615 300.754 93.5589 300.487C93.6933 296.939 93.4923 293.727 93.8267 291.384C94.8308 291.184 95.5 291.451 96.1693 291.853L96.3704 291.987C97.2401 292.523 97.8428 293.058 98.5787 293.928C99.4491 294.999 99.4491 296.805 98.6459 297.742V297.742ZM101.189 287.837C100.118 286.833 98.6459 286.097 96.3704 285.763C95.7005 285.628 94.9647 285.561 94.1615 285.561C91.3505 285.495 90.012 285.495 87.2011 285.428C87.1339 293.86 87.0672 298.077 87 306.511C90.0787 306.711 91.6183 307.045 94.7641 306.846C95.3663 306.846 95.9016 306.777 96.3704 306.711C98.4448 306.511 99.8505 305.975 101.725 304.435C102.795 303.565 103.264 303.097 104 301.959C105.74 299.616 107.949 295.199 103.531 290.18C102.661 289.242 102.126 288.773 101.189 287.837" fill="#3E4FAA"/>
<path d="M211.755 322.707C210.35 319.227 212.358 316.884 215.905 316.818C216.574 316.818 217.11 316.884 217.645 316.951C218.917 317.085 219.854 317.285 221.393 317.553C221.058 315.011 221.058 313.739 220.59 311.33C219.921 311.128 218.85 310.86 217.645 310.727C215.705 310.392 213.362 310.259 211.421 310.928C209.078 311.664 207.471 312.668 206.401 313.872C204.326 316.215 204.259 319.294 205.13 322.439C205.463 323.577 205.866 324.648 206.401 325.652C207.471 327.592 208.81 329.333 209.949 330.27C211.889 329.065 212.959 328.53 215.169 327.592C213.83 326.388 212.693 325.183 211.755 322.707" fill="#3E4FAA"/>
<path d="M236.786 331.207C238.193 331.005 239.598 330.739 241.003 330.471C239.463 327.995 238.594 326.521 237.389 324.447L236.786 324.581C233.441 325.384 231.231 325.987 227.751 325.652C229.358 323.577 230.161 322.507 231.701 320.431C229.625 318.759 228.621 317.888 226.546 316.148C223.066 321.033 220.723 324.112 217.645 327.927C216.507 329.333 215.302 330.805 213.83 332.545C215.37 333.817 216.306 334.553 217.645 335.558C218.046 335.892 218.449 336.16 218.917 336.561C220.322 334.754 221.125 333.884 222.798 332.144C224.07 335.959 224.271 338.168 224.405 341.447C227.149 342.049 228.621 342.384 231.098 343.053C230.094 338.837 229.826 336.427 228.955 332.344C231.834 332.009 234.377 331.608 236.786 331.207Z" fill="#3E4FAA"/>
<path d="M241.606 343.187C244.617 344.794 246.09 345.596 249.102 347.203C250.173 345.864 250.038 343.856 250.441 341.916C247.897 340.509 246.558 339.773 244.015 338.368C244.417 337.565 244.617 337.164 245.019 336.36C247.429 337.499 250.038 339.037 252.181 340.577C252.582 340.844 252.983 341.179 253.385 341.447C254.455 339.104 254.858 337.765 255.191 335.289C254.121 334.687 253.117 334.219 252.181 333.751C248.834 332.077 246.425 330.872 242.475 328.797C240.133 333.148 238.527 336.16 236.786 339.439C235.515 341.715 234.177 344.191 232.57 347.203L236.786 349.478L245.219 353.963C246.358 352.558 248.231 351.285 248.699 350.013C245.219 348.542 243.613 347.471 240.133 345.53C240.467 344.525 240.937 343.789 241.606 343.187" fill="#3E4FAA"/>
<path d="M186.992 304.033C186.657 304.235 186.322 304.368 185.921 304.435C185.051 304.503 184.181 304.235 183.311 303.766C183.311 302.561 184.85 300.219 185.252 298.947C185.519 299.015 185.72 299.015 185.921 299.081C186.791 299.281 187.527 299.751 187.995 300.42C189.066 301.959 188.665 303.164 186.992 304.033V304.033ZM193.484 307.045C194.421 306.041 195.157 304.435 195.023 301.759C194.956 300.954 194.555 299.684 193.484 298.412C192.614 297.475 191.409 296.537 189.736 295.868C188.33 295.266 187.126 294.864 185.921 294.529C184.381 294.061 182.842 293.593 180.901 292.789C179.429 294.999 176.953 302.16 173.873 308.585C173.472 309.454 173.004 310.325 172.535 311.195L173.873 311.731C175.48 312.4 176.684 312.868 178.626 313.739C179.83 311.329 180.834 309.321 181.704 307.781C183.378 310.124 183.378 313.136 184.247 316.148C184.917 316.416 185.452 316.683 185.921 316.884C187.192 317.42 188.196 317.888 189.736 318.558C190.137 316.483 189 313.07 188.464 309.521C189.736 308.92 190.606 308.92 191.811 308.251C192.413 307.983 192.949 307.581 193.484 307.045" fill="#3E4FAA"/>
<path d="M168.586 298.077C168.318 298.346 167.984 298.545 167.649 298.612C167.047 298.747 166.444 298.612 165.775 298.346C165.574 297.541 166.444 295.533 166.578 294.529C166.98 294.463 167.315 294.529 167.649 294.597C168.118 294.664 168.519 294.864 168.787 295.199C169.858 296.203 169.724 297.273 168.586 298.077V298.077ZM173.873 301.491C175.346 299.684 175.48 297.341 174.81 294.999C174.61 294.195 174.275 293.525 173.873 292.924C172.736 291.251 171.062 290.38 169.791 290.046C168.988 289.777 168.252 289.577 167.649 289.376C165.775 288.841 164.37 288.439 162.027 287.771C161.023 291.317 159.082 300.62 156.807 308.116C159.55 308.92 160.89 309.321 163.633 310.124C163.968 307.916 163.968 305.707 165.173 303.164C165.976 303.432 166.779 303.632 167.649 303.766C168.787 303.9 169.925 303.833 171.263 303.432C172.401 302.963 173.271 302.293 173.873 301.491" fill="#3E4FAA"/>
<path d="M264.026 339.372C261.417 338.1 260.078 337.431 257.401 336.16C255.526 341.513 254.189 345.261 252.181 349.612C251.31 351.419 250.306 353.36 249.102 355.57C250.239 356.104 251.243 356.506 252.181 356.908C254.79 358.045 256.798 358.915 260.413 360.789C261.55 359.049 263.357 357.644 264.897 355.636C262.153 354.9 260.145 354.565 258.137 353.227C260.546 348.073 261.885 344.727 264.026 339.372" fill="#3E4FAA"/>
<path d="M208.209 304.368C207.539 304.033 207.003 303.699 206.401 303.432C204.929 302.628 203.59 301.959 201.649 301.223C198.838 307.515 196.495 311.463 193.484 316.751C192.949 317.62 192.413 318.491 191.878 319.427C192.346 319.896 192.881 320.231 193.484 320.565C195.224 321.503 197.5 322.172 198.637 322.707C199.709 318.959 203.791 312.4 206.401 307.715C207.137 306.442 207.806 305.305 208.209 304.368" fill="#3E4FAA"/>
<path d="M123.476 291.853C123.276 289.243 123.008 287.904 122.138 285.561C116.382 285.695 113.571 285.83 107.815 285.963C107.882 294.33 107.882 298.479 107.949 306.846C113.638 306.777 116.449 306.777 122.205 306.777C122.472 304.971 123.61 302.896 123.409 301.624C119.661 301.959 117.72 301.946 113.771 301.879C113.504 300.875 113.638 300.252 113.905 299.323C117.252 299.323 118.992 299.323 122.405 299.323C122.74 297.464 121.602 295.721 121.134 293.848C118.189 293.78 116.65 293.687 113.705 293.687C113.638 292.749 113.638 292.301 113.638 291.431C116.917 291.164 120.599 291.384 123.476 291.853" fill="#3E4FAA"/>
<path d="M135.992 294.329C135.59 294.864 135.055 295.199 134.453 295.4C133.85 295.601 133.181 295.601 132.378 295.533C131.976 294.463 132.378 291.719 132.311 290.38C133.047 290.112 133.783 290.046 134.453 290.18C134.787 290.313 135.055 290.38 135.39 290.581C136.929 291.585 137.13 292.924 135.992 294.329ZM141.949 296.337C143.087 294.999 144.024 292.665 142.35 288.917C141.748 287.579 139.339 285.379 135.122 285.379C134.921 285.379 134.653 285.379 134.453 285.379C131.441 285.379 129.299 286.297 125.819 286.297C125.283 289.176 126.02 298.393 125.216 306.759C127.827 306.759 129.165 306.759 131.91 306.759C132.043 303.971 132.177 301.749 132.378 299.941C133.181 300.477 133.85 301.017 134.453 301.687C135.724 303.159 136.661 304.935 138.067 306.541C140.41 306.608 141.614 306.66 143.956 306.727C143.555 304.652 141.145 301.9 139.272 298.888C140.208 297.751 141.012 297.408 141.949 296.337" fill="#3E4FAA"/>
<path d="M302.175 358.38C301.574 359.049 301.306 359.384 300.637 359.919C300.369 360.12 300.235 360.321 299.967 360.454C298.897 361.058 297.691 361.191 297.157 360.991C297.223 357.443 297.157 354.164 297.558 351.888C298.495 351.753 299.165 351.954 299.834 352.356L299.967 352.491C300.77 353.025 301.373 353.561 302.175 354.499C302.979 355.636 302.913 357.443 302.175 358.38ZM304.853 348.408C303.782 347.404 302.243 346.6 299.967 346.265C299.365 346.199 298.695 346.132 297.959 346.065C295.149 345.931 293.81 345.931 290.999 345.797C290.798 354.231 290.597 358.447 290.397 366.88C293.475 367.08 295.014 367.483 298.161 367.415C298.83 367.348 299.431 367.348 299.967 367.282C301.842 367.08 303.247 366.545 305.121 365.073C306.125 364.203 306.661 363.735 307.463 362.596C309.203 360.321 311.546 355.971 307.195 350.818C306.326 349.88 305.79 349.344 304.853 348.408Z" fill="#3E4FAA"/>
<path d="M318.574 361.325C318.171 360.321 318.171 359.451 318.306 358.58C321.719 358.045 323.393 357.844 326.806 357.442C326.873 355.636 325.467 354.096 324.798 352.356C321.786 352.691 320.314 352.892 317.435 353.227C317.302 352.356 317.235 351.954 317.034 351.017C320.247 350.415 323.927 350.148 326.873 350.215C326.337 347.739 325.802 346.333 324.665 344.191C319.042 345.128 316.165 345.596 310.542 346.533C311.679 354.765 312.282 358.915 313.419 367.148C319.109 366.344 321.919 365.942 327.609 365.14C327.675 363.332 328.546 361.124 328.145 359.852C324.463 360.789 322.455 360.789 318.574 361.325" fill="#3E4FAA"/>
<path d="M280.893 353.896C278.282 349.747 276.677 347.27 274.802 342.719C272.794 342.116 271.79 341.848 269.782 341.313C268.177 349.344 267.373 353.963 265.231 361.86C267.707 362.33 268.846 362.596 271.455 363.332C272.393 359.852 272.727 358.045 273.598 354.431C276.007 357.443 277.479 360.991 279.421 365.273C281.562 365.743 282.633 365.943 284.774 366.479C286.247 358.112 287.518 353.628 289.594 345.999C286.849 345.664 285.511 345.463 282.834 345.195C282.365 348.14 282.165 351.62 280.893 353.896" fill="#3E4FAA"/>
<path d="M96.4371 288.439V289.176C95.9683 288.975 95.5 288.841 94.9647 288.841C93.76 288.773 92.8896 288.773 91.9527 288.841C91.6183 288.841 91.2833 288.841 90.8819 288.841C90.8152 294.529 90.8152 297.742 90.8152 303.432C91.0829 303.432 91.3505 303.432 91.6183 303.432C92.2876 303.499 92.9568 303.699 93.9605 303.632C94.8308 303.565 95.6339 303.432 96.4371 303.164V303.833C95.3663 304.168 94.362 304.301 93.8939 304.301C92.4215 304.235 91.6183 304.168 90.1459 304.033C90.1459 297.742 90.1459 294.529 90.2125 288.172C92.0865 288.172 93.0907 288.037 94.9647 288.172C95.5 288.172 95.9683 288.305 96.4371 288.439ZM110.492 288.305L120.063 288.172L119.996 288.573L119.728 288.773L111.429 288.908C111.094 290.648 111.295 294.128 111.429 296.07L119.26 296.003L119.528 296.537L119.126 296.739L111.63 296.805C111.295 298.747 111.563 302.763 111.63 304.301L119.862 304.168L120.397 304.503L120.197 304.971L110.693 305.104L110.492 288.305ZM96.4371 303.833V303.164C97.8428 302.695 99.1813 301.892 100.453 300.487C101.256 299.616 103.397 295.936 100.988 292.523C100.386 291.719 99.0475 290.581 97.9767 289.846C97.5745 289.644 97.0396 289.376 96.4371 289.176V288.439C97.1735 288.707 97.8428 289.041 98.2444 289.242C99.4491 290.046 100.854 291.184 101.591 292.12C104.535 295.936 102.126 300.017 101.189 300.954C99.9172 302.428 98.0433 303.364 96.4371 303.833ZM134.252 287.837V288.573C132.713 288.372 131.307 288.507 129.366 288.841C129.366 292.321 129.232 294.128 129.366 297.608C131.039 297.541 132.311 297.809 134.252 297.541V298.277C132.177 298.412 131.441 298.346 129.366 298.346C129.366 300.487 129.366 301.558 129.366 303.766C129.366 303.966 129.099 304.033 128.965 304.168C128.764 304.033 128.563 304.033 128.563 303.766C128.63 297.475 128.63 294.463 128.696 288.305C130.972 288.105 132.378 287.771 134.252 287.837ZM134.252 298.277V297.541C134.453 297.541 134.72 297.475 134.988 297.408C139.339 296.604 141.346 290.18 136.126 288.908C135.456 288.707 134.854 288.64 134.252 288.573V287.837C134.921 287.904 135.657 287.971 136.594 288.105C140.208 288.707 142.082 295.868 135.59 297.942C137.13 300.821 138.201 302.093 140.007 304.368C139.874 304.503 139.74 304.636 139.606 304.703C137.531 302.36 136.461 300.821 134.787 298.211C134.587 298.211 134.385 298.211 134.252 298.277ZM167.381 291.652V292.321C166.578 292.12 165.641 291.92 164.638 291.853C163.901 295.132 163.567 296.805 162.83 300.017C164.303 300.553 165.507 300.954 167.381 300.954V301.691C165.976 301.624 164.236 301.289 162.563 300.754C161.961 303.164 161.693 304.168 161.157 306.309C161.023 306.577 160.89 306.711 160.756 306.912C160.622 306.777 160.488 306.644 160.354 306.442C161.827 300.285 162.563 297.207 163.968 290.983C165.24 291.184 166.177 291.317 167.381 291.652ZM167.381 301.691V300.954C167.649 300.954 167.85 300.954 168.118 300.954C170.527 300.821 173.405 298.011 170.995 294.463C170.527 293.66 169.255 292.856 167.381 292.321V291.652C167.582 291.719 167.716 291.719 167.917 291.785C169.523 292.321 171.598 293.392 172 294.597C174.007 298.947 171.129 301.356 168.787 301.624C168.385 301.691 167.917 301.691 167.381 301.691ZM185.452 296.404V297.007C184.783 296.805 184.047 296.604 183.244 296.404C181.838 299.549 181.035 301.223 179.763 304.435C181.504 305.172 182.574 305.975 184.984 306.511C185.118 306.577 185.318 306.577 185.452 306.577V307.247H185.385L185.452 307.515V310.727C185.184 309.454 184.917 308.251 184.649 307.045C182.173 306.376 181.57 305.975 179.495 305.037C178.626 307.045 178.157 308.049 177.287 310.124C177.153 310.259 177.019 310.191 176.752 310.325C176.618 310.124 176.484 309.991 176.618 309.723C179.161 304.033 180.366 301.356 182.842 295.601C183.846 295.936 184.649 296.203 185.452 296.404ZM196.228 318.491L196.696 319.093L203.723 306.176L203.858 305.305L203.389 304.971L196.228 318.491ZM185.452 307.247C192.145 307.848 193.216 300.62 190.138 298.612C188.263 297.341 186.992 296.872 185.452 296.404V297.007C186.925 297.475 188.063 298.077 189.401 299.215C193.551 302.293 189.669 307.18 185.452 306.577V307.247ZM185.452 310.727V307.515C186.389 310.793 186.389 312.132 186.992 314.942C186.523 315.412 187.058 315.277 186.389 314.942C186.055 313.404 185.72 312.065 185.452 310.727ZM217.846 332.412V332.679L217.779 332.545L217.846 332.412ZM217.846 313.739V313.872C217.711 314.007 217.578 314.073 217.445 314.207C215.102 314.341 212.759 314.341 211.153 315.011C209.279 315.947 207.739 317.954 208.409 321.301C208.877 323.309 209.145 324.581 210.618 326.388C210.55 326.388 210.55 326.454 210.483 326.589C210.215 326.589 210.149 326.589 209.949 326.321C208.877 324.916 208.209 324.112 207.606 321.435C207.205 319.561 207.205 315.813 210.885 314.207C212.157 313.604 214.633 313.27 217.177 313.404C217.511 313.471 217.578 313.604 217.846 313.739ZM217.846 313.872V313.739L217.979 313.805L217.846 313.872ZM236.385 346.065V347.27L235.85 347.001L236.385 346.065ZM236.385 328.128V328.596C232.102 329.6 229.759 329.4 225.81 329.4C226.546 333.281 226.814 335.491 227.55 339.573C227.417 339.707 227.417 339.84 227.283 339.975C227.149 339.84 227.015 339.773 226.814 339.64C226.346 335.491 225.61 333.148 224.739 329.199C223.467 329.132 222.866 328.999 221.661 328.864C220.59 330.404 219.519 331.273 218.582 332.747C218.381 332.813 218.314 332.88 218.046 333.013C217.979 332.88 217.913 332.813 217.846 332.679V332.412C221.527 327.258 223.669 324.581 227.618 319.963C227.885 320.164 227.951 320.297 228.019 320.565C225.945 323.175 224.806 324.581 222.731 327.191C222.463 327.592 222.598 328.195 223.201 328.329C228.822 328.999 232.235 328.396 235.917 328.128C236.117 328.128 236.251 328.128 236.385 328.128ZM259.074 340.644L259.677 340.376L260.145 340.777C258.606 344.727 256.665 349.344 254.455 354.364C256.33 355.166 258.471 356.104 260.211 356.84L259.743 357.509C258.003 356.64 255.326 355.501 253.05 354.43C255.125 350.348 257.334 345.329 259.074 340.644ZM269.381 360.454C269.113 360.321 268.979 360.321 268.711 360.187C270.117 354.164 270.653 350.951 272.058 344.793C273.865 345.999 280.09 358.983 282.098 361.392C283.169 356.037 283.971 353.427 285.243 348.14C285.578 348.073 285.711 348.073 286.113 348.073C284.574 354.43 283.838 357.442 282.231 363.935C280.29 360.187 276.943 353.561 272.661 346.801C271.187 351.753 270.853 355.235 269.381 360.454ZM236.385 328.596V328.128C237.189 328.195 236.921 328.664 236.451 328.596H236.385ZM236.385 347.27V346.065L243.681 332.144L252.181 336.628L251.913 336.963H251.578L244.215 333.148C243.145 334.553 241.606 337.699 240.802 339.439L247.695 343.12V343.656L247.227 343.588L240.669 340.175C239.463 341.781 237.657 345.396 237.054 346.801L244.35 350.549L244.685 351.152L244.282 351.419L236.385 347.27ZM299.967 348.876V349.612C299.566 349.478 299.165 349.412 298.695 349.344C297.491 349.277 296.621 349.277 295.683 349.277C295.349 349.277 295.014 349.277 294.613 349.277C294.479 355.033 294.413 358.112 294.278 363.801C294.546 363.868 294.814 363.868 295.014 363.868C295.818 364.001 296.487 364.136 297.425 364.136C298.294 364.07 299.165 363.935 299.967 363.666V364.336C298.83 364.671 297.826 364.805 297.357 364.739C295.885 364.671 295.082 364.604 293.609 364.471C293.743 358.112 293.81 354.966 293.943 348.608C295.885 348.608 296.822 348.541 298.762 348.675C299.165 348.675 299.566 348.809 299.967 348.876ZM313.487 348.408L322.991 347.001V347.471L322.723 347.671L314.558 348.942C314.423 350.683 315.161 354.164 315.495 355.971L323.258 354.9L323.593 355.368L323.191 355.636L315.762 356.707C315.762 358.648 316.499 362.596 316.766 364.136L324.931 362.93L325.534 363.199L325.401 363.6L316.03 365.005L313.487 348.408ZM299.967 364.336V363.666C301.306 363.265 302.645 362.463 303.917 361.058C304.719 360.187 306.927 356.64 304.586 353.16C303.983 352.289 302.711 351.152 301.574 350.483C301.173 350.215 300.57 349.88 299.967 349.612V348.876C300.703 349.144 301.439 349.545 301.909 349.88C303.113 350.616 304.518 351.821 305.187 352.758C308.066 356.573 305.522 360.656 304.586 361.592C303.314 362.997 301.507 363.868 299.967 364.336Z" fill="#FBC907"/>
<path d="M431.969 301.549C431.435 303.771 431.161 304.913 430.691 307.15C434.026 306.406 435.685 306.201 438.768 305.665C439.053 305.6 439.336 305.534 439.684 305.483C439.776 303.423 439.687 302.395 440.033 300.397C436.839 300.839 435.176 300.776 431.969 301.549" fill="#3E4FAA"/>
<path d="M437.116 302.735L434.112 303.223L433.99 303.732L437.075 303.465L437.116 302.735Z" fill="#FBC907"/>
<path d="M400.518 323.057C399.724 322.19 399.435 321.397 399.22 320.46C402.394 318.656 404.053 317.79 407.228 315.986C406.65 314.184 404.774 313.174 403.331 311.659C400.446 313.174 399.075 313.967 396.262 315.41C395.83 314.617 395.541 314.184 395.035 313.318C397.994 311.514 401.673 309.784 404.631 308.702C403.043 306.465 402.034 305.166 400.085 303.506C395.973 305.887 393.448 307.331 390.058 309.349C389.048 309.927 387.966 310.577 386.74 311.298C387.966 313.534 389.048 315.482 390.058 317.214C392.511 321.686 394.53 325.365 397.633 330.919C402.971 327.962 405.713 326.447 411.122 323.489C410.474 321.614 410.474 319.089 409.607 318.007C406.217 320.243 404.27 321.108 400.518 323.057" fill="#3E4FAA"/>
<path d="M399.378 306.717L390.433 311.767L399.378 327.493L408.252 322.443L408.179 321.939L407.531 321.865L399.739 326.266C398.873 324.896 396.637 321.217 395.844 319.125L402.913 315.229L403.202 314.868L402.696 314.579L395.338 318.621C394.257 316.889 392.165 313.642 391.659 311.839L399.378 307.438L399.595 307.078L399.378 306.717Z" fill="#FBC907"/>
<path d="M373.733 318.984C379.392 326.228 382.254 330.942 386.957 338.493C389.552 337.71 392.253 334.573 393.893 333.414C389.699 329.45 383.601 318.073 380.464 314.007C377.936 315.781 376.262 316.701 373.733 318.984" fill="#3E4FAA"/>
<path d="M389.109 333.443L388.188 333.648L378.337 319.196L378.952 318.889L379.668 319.47L389.109 333.443Z" fill="#FBC907"/>
<path d="M490.608 292.778L481.831 312.283L481.343 313.259L485.732 313.746L487.195 310.333H497.923L498.898 312.771H503.775L496.46 292.778H490.608Z" fill="#FBC907"/>
<path d="M489.145 307.407C489.958 305.131 491.681 300.482 492.071 300.092L494.509 299.605L497.435 307.407H489.145Z" fill="white"/>
<path d="M506.592 314.445C506.137 313.304 505.333 310.953 505.088 310.349C501.1 300.276 498.581 293.023 497.882 291.411C497.637 290.773 495.608 291.008 493.264 290.975C491.306 290.941 489.207 290.404 488.892 291.613C488.577 292.721 482.701 306.454 480.007 312.431C479.552 313.405 478.888 315.083 480.007 315.117C481.756 315.151 487.738 315.352 487.913 314.882C488.262 313.875 488.647 312.162 489.067 311.894C489.836 311.457 493.894 311.826 496.063 311.692C497.112 311.625 497.217 313.002 497.637 313.875C497.812 314.177 497.882 315.218 498.512 315.184C500.47 315.117 503.968 315.318 505.473 315.117C506.277 314.983 506.977 315.386 506.592 314.445ZM501.94 311.188C502.499 312.834 501.275 312.061 501.135 311.759C500.89 311.088 500.505 310.349 500.295 309.812C500.191 309.476 500.226 309.207 498.861 309.375C497.252 309.577 490.676 309.442 487.283 309.308C486.828 309.275 486.129 308.939 485.779 310.047C485.464 311.188 485.394 311.222 485.254 311.558C485.009 312.297 483.68 312.632 484.415 310.685C485.324 308.334 488.647 301.384 491.515 295.273C491.935 294.366 491.795 293.997 492.88 293.93C493.23 293.93 493.649 293.93 494.104 293.997C494.559 294.097 494.909 293.762 495.153 294.366C496.902 298.664 500.086 305.917 501.94 311.188ZM499.246 306.991C498.407 305.01 496.273 299.806 494.839 296.381C494.559 295.709 494.594 294.836 493.614 294.769C492.425 294.635 492.355 295.541 491.97 296.448C491.55 297.422 487.598 305.984 487.423 306.454C487.108 307.159 485.534 308.637 488.402 308.502C490.991 308.368 497.392 308.637 498.092 308.637C499.211 308.637 500.051 308.838 499.246 306.991ZM495.503 305.447C495.748 306.253 495.993 306.488 494.909 306.622C493.789 306.756 493.999 306.756 493.404 306.756C492.74 306.756 492.355 306.655 491.795 306.555C491.166 306.454 490.501 307.025 491.376 305.111C492.25 303.331 492.355 302.996 492.74 302.19C493.055 301.552 493.404 300.444 494.104 302.122C494.839 303.801 495.433 305.178 495.503 305.447Z" fill="#3E4FAA"/>
<path d="M418.343 319.801L411.672 301.471L416.254 299.804L421.925 315.384L427.882 313.215L427.966 316.298L418.343 319.801Z" fill="#FBC907"/>
<path d="M430.28 310.885C430.413 310.405 429.743 309.786 428.956 310.437C428.199 311.078 424.646 312.67 423.903 312.973C423.039 313.321 422.82 313.467 422.325 311.921C421.831 310.375 418.157 300.658 417.865 299.105C417.787 298.702 417.699 297.24 416.574 297.716C415.329 298.236 411.72 299.483 410.875 299.79C409.971 300.119 409.145 299.822 409.799 301.244C410.432 302.607 413.072 309.015 413.627 310.54C414.181 312.064 416.44 318.644 416.754 320.82C416.863 321.776 416.968 321.971 418.083 321.565C419.199 321.158 427.151 318.331 427.995 318.023C428.809 317.727 429.8 318.196 429.885 316.837C429.994 315.636 430.002 311.716 430.28 310.885ZM427.217 314.854C427.317 315.316 427.196 315.36 426.593 315.579C425.96 315.81 421.135 317.566 420.623 317.752C420.14 317.928 419.91 318.045 419.682 317.232C419.444 316.389 414.949 304.415 414.657 303.426C414.527 302.975 413.845 301.664 414.409 301.525C415.003 301.375 415.306 302.393 415.541 303.038C415.775 303.683 420.128 315.642 420.299 316.111C420.48 316.609 420.519 317.093 421.403 316.705C422.286 316.317 425.683 315.048 426.075 314.905C426.467 314.762 427.096 314.334 427.217 314.854Z" fill="#3E4FAA"/>
<path d="M368.489 347.865L356.879 331.588L359.772 328.925L366.69 325.188L372.073 328.537L372.523 334.206L368.381 340.155L372.062 345.316L368.489 347.865Z" fill="#FBC907"/>
<path d="M365.549 336.185L361.471 331.307L364.647 329.042L368.614 330.405L369.122 333.636L365.549 336.185Z" fill="white"/>
<path d="M372.959 327.634C371.504 325.76 369.034 324.839 367.265 324.569C365.107 324.307 362.583 325.188 360.754 326.492C360.179 326.902 355.841 329.882 355.171 330.436C354.458 330.983 354.798 331.239 355.184 331.615C355.76 332.2 366.179 346.531 366.924 347.686C367.159 348.016 367.473 348.788 367.644 348.972C368.005 349.367 368.375 349.333 368.843 348.884C369.06 348.691 372.422 346.331 373.434 345.762C373.941 345.477 374.425 345.438 374.134 344.918C373.741 344.202 373.397 344.218 373.125 343.837C372.763 343.329 371.055 341.099 370.62 340.49C369.877 339.449 369.684 339.51 370.649 338.707C372.22 337.318 377.217 333.217 372.959 327.634ZM370.732 329.375C372.852 332.346 371.032 335.1 369.065 337.039C367.765 338.311 366.421 339.577 366.291 339.67C366.055 339.838 366.261 339.959 366.677 340.543C367.076 341.102 369.533 344.215 369.607 344.43C369.682 344.645 369.847 344.987 369.578 345.218C369.327 345.474 369.043 345.408 368.697 344.812C368.296 344.14 359.874 332.829 359.459 332.358C359.188 331.977 358.18 331.394 359.719 330.181C361.345 328.868 364.126 327.076 366.846 327.243C368.19 327.357 369.609 327.801 370.732 329.375ZM370.18 330.037C367.532 326.601 365.025 327.507 360.761 330.204C359.557 330.948 359.563 331.288 360.141 331.987C360.736 332.712 363.701 336.536 364.262 337.323C364.733 337.984 365.484 339.479 366.342 338.637C367.537 337.439 372.963 333.608 370.18 330.037ZM367.943 331.211C369.136 332.774 367.704 334.026 366.972 334.547C366.241 335.069 366.152 335.056 365.682 334.395C365.211 333.735 364.52 332.657 363.924 331.932C363.635 331.526 363.041 330.915 364.137 330.516C365.329 330.088 366.786 329.7 367.943 331.211Z" fill="#3E4FAA"/>
<path d="M463.446 313.976V291.996L467.734 291.46L476.312 292.532L478.992 298.965L475.776 304.326L468.27 307.007V313.976H463.446Z" fill="#FBC907"/>
<path d="M468.27 301.646L467.734 294.677H472.023L474.704 298.429L473.095 301.646H468.27Z" fill="white"/>
<path d="M480.361 298.723C480.256 296.117 478.633 293.716 477.222 292.344C475.458 290.733 472.636 289.91 470.166 289.91C469.39 289.91 463.605 289.807 462.653 289.875C461.665 289.91 461.806 290.355 461.912 290.938C462.053 291.83 462.229 311.308 462.159 312.817C462.159 313.262 461.947 314.154 461.982 314.428C462.053 315.011 462.406 315.217 463.111 315.114C463.429 315.08 467.944 315.114 469.214 315.251C469.849 315.32 470.308 315.594 470.378 314.943C470.484 314.051 470.166 313.845 470.166 313.331C470.166 312.645 470.061 309.559 470.061 308.736C470.061 307.33 469.849 307.261 471.225 307.159C473.518 306.918 480.608 306.438 480.361 298.723ZM477.257 298.86C477.257 302.872 473.871 304.175 470.872 304.655C468.896 304.964 466.886 305.238 466.709 305.238C466.392 305.238 466.498 305.478 466.498 306.267C466.498 307.021 466.709 311.376 466.639 311.616C466.568 311.856 466.498 312.268 466.11 312.302C465.722 312.371 465.51 312.131 465.58 311.376C465.651 310.519 465.334 295.019 465.263 294.333C465.263 293.819 464.734 292.653 466.886 292.55C469.179 292.413 472.812 292.584 475.14 294.47C476.269 295.431 477.257 296.734 477.257 298.86ZM476.34 299.1C476.164 294.333 473.341 293.545 467.803 293.236C466.251 293.133 466.039 293.442 466.11 294.436C466.18 295.465 466.392 300.78 466.392 301.843C466.392 302.735 466.11 304.552 467.415 304.347C469.249 304.038 476.552 304.072 476.34 299.1ZM473.588 298.723C473.659 300.883 471.578 301.089 470.59 301.089C469.602 301.089 469.531 301.02 469.531 300.129C469.531 299.237 469.602 297.831 469.531 296.802C469.531 296.254 469.39 295.328 470.625 295.671C471.966 296.048 473.518 296.631 473.588 298.723Z" fill="#3E4FAA"/>
<path d="M343.492 345.44L343.078 338.67L346.596 336.364L347.435 341.54L356.117 346.758L358.093 353.432L354.023 355.249L351.037 349.16L343.492 345.44Z" fill="#FBC907"/>
<path d="M357.886 346.064C355.879 343.609 350.515 343.143 349.211 341.404C347.998 339.72 347.987 336.218 348.25 334.94C348.517 333.615 348.026 333.727 347.187 334.224C346.378 334.652 343.09 336.67 342.455 337.036C342.125 337.231 341.217 337.172 341.154 338.367C341.091 339.562 340.275 344.209 342.767 347.127C344.067 348.65 345.943 348.891 347.784 349.513C349.043 349.93 350.345 350.661 351.06 351.498C352.382 353.046 352.225 356.033 352.01 356.787C351.822 357.518 352.112 358.016 353.012 357.643C353.938 357.247 357.616 355.686 358.116 355.478C358.69 355.251 358.976 355.27 359.173 354.443C359.396 353.594 360.027 348.624 357.886 346.064ZM355.006 348.348C355.897 350.132 356.023 350.332 356.033 352.035C356.043 353.738 355.874 353.224 355.627 353.303C355.227 353.47 355.057 353.483 355.002 352.52C354.978 351.487 354.786 349.677 353.88 348.827C352.974 347.977 351.007 347.419 350.252 347.01C349.471 346.624 346.709 345.823 345.691 344.63C344.845 343.641 344.203 340.986 344.431 339.825C344.51 339.495 344.351 338.621 344.859 338.582C345.541 338.482 345.437 338.571 345.417 339.817C345.398 341.063 345.347 342.378 346.518 343.748C348.1 345.601 354.209 346.834 355.006 348.348Z" fill="#3E4FAA"/>
<path d="M446.168 297.427L450.296 292.046L454.464 292.614L451.702 297.07L454.831 306.705L451.944 313.038L447.68 311.739L449.421 305.184L446.168 297.427Z" fill="#FBC907"/>
<path d="M456.621 307.341C456.717 304.171 452.974 300.301 453.131 298.133C453.32 296.066 455.609 293.416 456.646 292.624C457.718 291.799 457.273 291.562 456.314 291.386C455.423 291.178 451.618 290.544 450.898 290.405C450.521 290.335 449.874 289.695 449.043 290.555C448.211 291.416 444.546 294.387 444.513 298.225C444.495 300.227 445.753 301.64 446.734 303.317C447.411 304.457 447.914 305.863 447.904 306.964C447.886 309 445.808 311.151 445.152 311.579C444.53 312.008 444.422 312.574 445.346 312.882C446.305 313.191 450.105 314.426 450.618 314.597C451.2 314.802 451.404 315.004 452.095 314.51C452.82 314.015 456.557 310.678 456.621 307.341ZM452.949 307.175C452.451 309.107 452.415 309.34 451.305 310.632C450.195 311.924 450.406 311.425 450.166 311.323C449.755 311.185 449.619 311.084 450.209 310.322C450.868 309.527 451.911 308.034 451.785 306.798C451.658 305.562 450.54 303.85 450.238 303.047C449.902 302.243 448.344 299.827 448.358 298.258C448.369 296.957 449.626 294.532 450.559 293.806C450.836 293.608 451.289 292.844 451.698 293.148C452.278 293.52 452.141 293.519 451.309 294.446C450.477 295.373 449.576 296.333 449.56 298.135C449.539 300.571 453.341 305.51 452.949 307.175Z" fill="#3E4FAA"/>
<path d="M526.141 297.427L530.27 292.046L534.438 292.614L531.676 297.07L534.804 306.705L531.917 313.038L527.653 311.739L529.395 305.184L526.141 297.427Z" fill="#FBC907"/>
<path d="M536.595 307.341C536.691 304.171 532.948 300.301 533.105 298.133C533.294 296.066 535.583 293.416 536.62 292.624C537.691 291.799 537.247 291.562 536.287 291.386C535.397 291.178 531.592 290.544 530.872 290.405C530.495 290.335 529.848 289.695 529.017 290.555C528.185 291.416 524.52 294.387 524.487 298.225C524.469 300.227 525.727 301.64 526.708 303.317C527.385 304.457 527.887 305.863 527.878 306.964C527.86 309 525.781 311.151 525.125 311.579C524.504 312.008 524.396 312.574 525.32 312.882C526.279 313.191 530.079 314.426 530.592 314.597C531.174 314.802 531.378 315.004 532.069 314.51C532.794 314.015 536.531 310.678 536.595 307.341ZM532.923 307.175C532.425 309.107 532.389 309.34 531.279 310.632C530.169 311.924 530.379 311.425 530.14 311.323C529.729 311.185 529.593 311.084 530.183 310.322C530.842 309.527 531.885 308.034 531.759 306.798C531.632 305.562 530.514 303.85 530.212 303.047C529.876 302.243 528.318 299.827 528.331 298.258C528.343 296.957 529.6 294.532 530.533 293.806C530.81 293.608 531.262 292.844 531.672 293.148C532.252 293.52 532.115 293.519 531.283 294.446C530.451 295.373 529.55 296.333 529.534 298.135C529.513 300.571 533.315 305.51 532.923 307.175Z" fill="#3E4FAA"/>
<path d="M510.537 297.427L514.665 292.046L518.833 292.614L516.071 297.07L519.2 306.705L516.313 313.038L512.049 311.739L513.79 305.184L510.537 297.427Z" fill="#FBC907"/>
<path d="M520.99 307.341C521.086 304.171 517.344 300.301 517.5 298.133C517.69 296.066 519.978 293.416 521.015 292.624C522.087 291.799 521.643 291.562 520.683 291.386C519.792 291.178 515.987 290.544 515.267 290.405C514.89 290.335 514.243 289.695 513.412 290.555C512.581 291.416 508.916 294.387 508.882 298.225C508.865 300.227 510.123 301.64 511.103 303.317C511.78 304.457 512.283 305.863 512.273 306.964C512.255 309 510.177 311.151 509.521 311.579C508.899 312.008 508.791 312.574 509.715 312.882C510.674 313.191 514.474 314.426 514.987 314.597C515.569 314.802 515.773 315.004 516.464 314.51C517.19 314.015 520.926 310.678 520.99 307.341ZM517.318 307.175C516.82 309.107 516.784 309.34 515.674 310.632C514.564 311.924 514.775 311.425 514.535 311.323C514.125 311.185 513.988 311.084 514.578 310.322C515.238 309.527 516.281 308.034 516.154 306.798C516.027 305.562 514.91 303.85 514.608 303.047C514.271 302.243 512.713 299.827 512.727 298.258C512.738 296.957 513.995 294.532 514.929 293.806C515.205 293.608 515.658 292.844 516.067 293.148C516.648 293.52 516.51 293.519 515.678 294.446C514.846 295.373 513.945 296.333 513.929 298.135C513.908 300.571 517.71 305.51 517.318 307.175Z" fill="#3E4FAA"/>
</svg>
