<svg width="943" height="271" viewBox="0 0 943 271" fill="none" xmlns="http://www.w3.org/2000/svg">
<rect width="943" height="271" fill="white"/>
<path d="M394.578 135.299L368.292 99.0787L335.45 53.6621C328.636 44.2919 315.522 42.199 306.126 48.9812H305.638C296.259 55.7954 294.166 68.9071 300.957 78.3028L342.015 134.883L300.957 191.546C294.143 200.95 296.199 214.081 305.555 220.953H306.043C315.439 227.733 328.553 225.642 335.367 216.272L360.002 182.924L394.578 135.299V135.299Z" fill="#FFAD00"/>
<path d="M431.121 49.3127H430.624C421.237 42.5241 408.123 44.6234 401.309 53.9936L378.891 84.4626L405.584 120.675L435.719 78.628C442.501 69.2408 440.409 56.1268 431.038 49.3127H431.121ZM435.719 191.962L405.584 149.914L379.216 186.126L401.64 217.011C408.446 226.381 421.56 228.472 430.956 221.692H431.446C440.825 214.878 442.916 201.764 436.127 192.368L435.719 191.962ZM844.446 83.0687H901.357C910.636 83.0177 918.147 75.5066 918.198 66.2279V47.0966H844.286C814.997 47.6766 791.55 71.5886 791.558 100.887C791.699 129.745 815.179 153.043 844.038 152.952H867.278C876.234 153.574 883.171 161.02 883.171 169.992C883.171 178.963 876.234 186.408 867.278 187.031H793.369V206.171C793.409 215.449 800.92 222.96 810.199 223.003H867.684C897.042 222.512 920.58 198.568 920.58 169.211C920.489 140.494 897.222 117.239 868.506 117.148H844.86C835.904 116.525 828.958 109.08 828.958 100.107C828.958 91.1258 835.904 83.6892 844.86 83.0687H844.446ZM773.655 47.2624H753.787C744.714 47.2624 737.36 54.616 737.36 63.6867V168.142C737.36 183.172 727.01 192.783 709.19 192.783H700.974C683.153 192.783 672.812 182.764 672.812 168.142V47.2624H652.769C643.697 47.2624 636.343 54.616 636.343 63.6867V174.059C636.343 205.017 657.616 225.633 694.408 225.633H715.681C752.467 225.633 773.738 205.017 773.738 174.059L773.655 47.2624ZM553.403 194.75H522.28C513.207 194.75 505.853 187.396 505.853 178.326V148.762H553.403C566.052 148.762 576.31 159.02 576.31 171.677C576.31 184.335 566.052 194.584 553.403 194.584V194.75ZM506.019 75.921H548.308C559.652 75.921 568.842 85.1085 568.842 96.4462C568.842 107.792 559.652 116.98 548.308 116.98H520.552C512.544 116.939 506.061 110.457 506.019 102.449V75.921ZM601.609 136.61C600.621 135.705 597.915 133.572 597.177 133C605.676 123.596 610 111.154 609.161 98.505C609.161 66.3937 588.387 47.4196 556.276 47.4196H486.879C477.6 47.4706 470.089 54.9815 470.049 64.2604V206.411C470.089 215.692 477.6 223.203 486.879 223.252H564.161C596.272 223.252 615.652 204.528 615.652 172.415C616.066 159.044 610.963 146.097 601.525 136.61H601.609ZM247.821 98.0907H219.651V64.2604C219.7 54.9305 227.245 47.3876 236.566 47.3366H247.821C257.14 47.3876 264.693 54.9305 264.736 64.2604V81.1755C264.693 90.5054 257.14 98.0482 247.821 98.0907ZM264.736 223.334H219.651V131.439C219.7 122.111 227.245 114.566 236.566 114.515H264.736V223.334Z" fill="#73D700"/>
<path d="M133.649 69.0685C133.649 58.0228 142.603 49.0685 153.649 49.0685H175V211.909C175 215.978 172.892 219.233 168.676 221.674C164.459 224.115 159.108 225.336 152.622 225.336C145.162 225.336 139.568 224.441 135.838 222.651C132.27 220.86 128.946 217.768 125.865 213.373L63.8378 124.507V223.383H22V65.6699C22 54.1141 29.7838 48.3361 45.3513 48.3361C53.6216 48.3361 59.5405 49.5568 63.1081 51.9982C66.8378 54.4396 71.3784 59.4851 76.7297 67.1347L133.649 147.456V69.0685Z" fill="#73D700"/>
</svg>
