<svg width="337" height="276" viewBox="0 0 337 276" fill="none" xmlns="http://www.w3.org/2000/svg">
<rect width="337" height="276" fill="white"/>
<path d="M289.265 32H47.3843C30.7624 32 17 42.5935 17 56.2872V178.013C17 191.707 30.7624 202.557 47.3843 202.557H289.265C305.589 202.557 319.351 191.707 319.351 178.013V56.2872C319.351 42.5935 305.589 32 289.265 32Z" fill="#E30613"/>
<path d="M301.262 177.548C301.262 181.389 297.975 184.468 293.012 184.468H43.6571C38.7158 184.468 35.0894 181.389 35.0894 177.548V57.0012C35.0894 53.1594 38.7158 50.0893 43.6571 50.0893H293.012C297.975 50.0893 301.262 53.1594 301.262 57.0012" fill="white"/>
<path d="M100.859 172.183L121.627 102.522L140.439 172.183H163.765L194.164 62.9728H172.192L153.983 135.031L134.72 62.9728H114.554L93.7859 135.031L77.8337 62.9728H50.5946L77.9842 172.183H100.859Z" fill="#E30613"/>
<path d="M282.57 64.9204C273.842 61.7744 265.264 60.4261 255.632 60.4261C240.282 60.4261 227.49 64.6207 218.16 72.7104C206.572 82.7476 201.154 97.1292 201.154 117.953C201.154 135.63 204.916 148.364 212.742 157.652C221.922 168.438 236.52 174.131 254.729 174.131C265.113 174.131 274.895 172.034 283.172 168.138V148.963C272.638 152.858 265.414 154.356 256.234 154.356C236.971 154.356 229.146 143.869 229.146 117.803C229.146 90.6874 236.67 80.2008 256.385 80.2008C265.414 80.2008 273.39 81.8487 282.57 85.4441V64.9204Z" fill="#E30613"/>
<path d="M73.2528 238.736H78.2455V234.053L79.8581 232.069L83.7033 238.736H89.1302L83.2692 228.44L88.634 222.238H83.3932L78.2455 228.937V215.292H77.0981C76.4779 215.912 75.1755 216.253 73.2528 216.284V238.736Z" fill="black"/>
<path d="M106.504 235.356C106.225 235.418 106.008 235.449 105.76 235.449C105.047 235.449 104.768 235.108 104.768 234.239V228.161C104.768 223.603 102.659 221.742 97.5422 221.742C95.4645 221.742 93.6039 222.052 91.3711 222.828V226.673C94.1311 225.836 95.4645 225.588 97.077 225.588C99.0307 225.588 99.775 226.301 99.775 228.192V229.092C96.3328 229.247 95.3405 229.34 93.7899 229.743C91.2161 230.394 90.0687 231.821 90.0687 234.425C90.0687 237.464 91.8363 239.232 94.8443 239.232C96.984 239.232 98.7206 238.271 99.992 236.317C100.643 238.209 101.791 239.015 103.837 239.015C104.861 239.015 105.729 238.86 106.504 238.519V235.356ZM99.775 234.55C98.8446 235.449 97.8523 235.883 96.798 235.883C95.4955 235.883 94.9373 235.294 94.9373 233.96C94.9373 232.627 95.3405 232.069 96.4568 231.759C97.2011 231.573 97.7593 231.51 99.775 231.417V234.55Z" fill="black"/>
<path d="M108.957 245H113.95V237.402C115.438 238.674 116.896 239.232 118.787 239.232C120.462 239.232 121.795 238.705 122.974 237.558C124.555 236.069 125.269 233.805 125.269 230.425C125.269 224.874 123.16 221.835 119.377 221.835C117.392 221.835 115.748 222.642 113.95 224.533V221.742H112.802C112.182 222.362 110.942 222.704 108.957 222.766V245ZM113.95 226.952C115.345 226.053 116.059 225.805 117.175 225.805C119.315 225.805 120.09 227.076 120.09 230.487C120.09 232.534 119.904 233.681 119.47 234.487C118.943 235.418 118.136 235.852 116.958 235.852C115.841 235.852 115.066 235.604 113.95 234.829V226.952Z" fill="black"/>
<path d="M139.467 238.736H143.374V222.114L138.382 222.548V234.115C137.141 234.922 136.428 235.17 135.374 235.17C133.885 235.17 133.389 234.518 133.389 232.534V222.114L128.396 222.548V233.774C128.396 237.247 130.071 239.232 133.048 239.232C135.188 239.232 136.769 238.426 138.661 236.286L139.467 238.736Z" fill="black"/>
<path d="M157.56 234.922C156.537 235.232 156.102 235.325 155.451 235.325C153.808 235.325 153.28 234.767 153.28 233.061V225.681H157.25V222.238H153.28V218.517H149.745L149.249 220.316C148.846 221.711 148.102 222.238 146.489 222.238H146.117V225.681H148.288V233.495C148.288 237.433 150.024 239.077 154.149 239.077C155.42 239.077 156.599 238.891 157.56 238.519V234.922Z" fill="black"/>
<path d="M170.582 234.922C169.558 235.232 169.124 235.325 168.473 235.325C166.83 235.325 166.302 234.767 166.302 233.061V225.681H170.272V222.238H166.302V218.517H162.767L162.271 220.316C161.868 221.711 161.124 222.238 159.511 222.238H159.139V225.681H161.31V233.495C161.31 237.433 163.046 239.077 167.171 239.077C168.442 239.077 169.621 238.891 170.582 238.519V234.922Z" fill="black"/>
<path d="M181.954 238.116C183.815 238.798 185.551 239.108 187.722 239.108C192.188 239.108 194.482 237.247 194.482 233.681C194.482 230.859 193.18 229.402 189.893 228.564C187.691 228.006 187.629 227.975 187.164 227.758C186.544 227.448 186.296 227.107 186.296 226.549C186.296 225.681 187.071 225.277 188.838 225.277C190.358 225.277 191.536 225.525 193.583 226.301V222.579C191.505 221.959 190.265 221.742 188.59 221.742C184.218 221.742 181.954 223.541 181.954 227.014C181.954 229.96 183.226 231.324 186.885 232.379C188.963 232.937 188.963 232.937 189.335 233.154C189.8 233.433 189.986 233.743 189.986 234.177C189.986 235.232 189.242 235.635 187.288 235.635C185.427 235.635 184.032 235.325 181.954 234.487V238.116Z" fill="black"/>
<path d="M205.164 221.742C199.831 221.742 196.854 224.843 196.854 230.394C196.854 236.162 199.738 239.232 205.164 239.232C210.529 239.232 213.475 236.162 213.475 230.487C213.475 224.843 210.529 221.742 205.164 221.742ZM205.164 225.215C206.312 225.215 207.087 225.619 207.614 226.487C208.079 227.2 208.265 228.347 208.265 230.487C208.265 232.348 208.11 233.464 207.8 234.177C207.304 235.232 206.436 235.759 205.164 235.759C204.017 235.759 203.242 235.356 202.715 234.487C202.249 233.743 202.063 232.658 202.063 230.425C202.063 228.627 202.218 227.51 202.529 226.797C203.025 225.743 203.893 225.215 205.164 225.215Z" fill="black"/>
<path d="M215.558 238.736H225.295V235.573H222.566V227.355C223.807 226.89 225.853 226.518 227.9 226.394V221.835C225.915 221.99 223.993 223.107 222.566 224.905V221.742H221.109C220.334 222.331 219.248 222.517 216.922 222.517H215.589V226.022H217.605V235.573H215.558V238.736Z" fill="black"/>
<path d="M229.579 238.736H239.317V235.573H236.588V227.355C237.828 226.89 239.875 226.518 241.921 226.394V221.835C239.937 221.99 238.014 223.107 236.588 224.905V221.742H235.13C234.355 222.331 233.27 222.517 230.944 222.517H229.61V226.022H231.626V235.573H229.579V238.736Z" fill="black"/>
<path d="M246.326 245H250.76L260.312 222.238H255.908L252.249 231.448L248.528 222.238H243.287L249.83 237.247L246.326 245Z" fill="black"/>
</svg>
