<svg width="956" height="272" viewBox="0 0 956 272" fill="none" xmlns="http://www.w3.org/2000/svg">
<rect width="956" height="272" fill="white"/>
<path d="M130.743 52C84.494 52 47 89.493 47 135.742C47 181.993 84.494 219.483 130.743 219.483C176.997 219.483 214.487 181.993 214.487 135.742C214.487 89.496 176.997 52.004 130.742 52.004L130.743 52ZM169.147 172.78C167.647 175.24 164.427 176.02 161.967 174.51C142.305 162.5 117.553 159.78 88.403 166.44C85.594 167.08 82.794 165.32 82.154 162.51C81.511 159.7 83.264 156.9 86.08 156.26C117.98 148.972 145.343 152.11 167.417 165.6C169.877 167.11 170.657 170.32 169.147 172.78ZM179.397 149.978C177.507 153.05 173.487 154.02 170.417 152.13C147.907 138.294 113.594 134.287 86.969 142.369C83.516 143.412 79.869 141.466 78.821 138.019C77.781 134.566 79.728 130.926 83.175 129.876C113.588 120.648 151.397 125.118 177.247 141.003C180.317 142.893 181.287 146.912 179.397 149.978ZM180.277 126.234C153.287 110.203 108.757 108.729 82.988 116.55C78.85 117.805 74.474 115.469 73.22 111.331C71.966 107.191 74.3 102.818 78.441 101.56C108.022 92.58 157.197 94.315 188.271 112.762C192.001 114.971 193.221 119.778 191.011 123.495C188.811 127.217 183.991 128.444 180.281 126.234H180.277Z" fill="#1ED760"/>
<path d="M733.74 115.719H746.69V115.723C747.22 115.723 747.64 116.149 747.64 116.672V173.149C747.64 173.679 747.21 174.099 746.69 174.099H733.74C733.22 174.099 732.79 173.679 732.79 173.149V116.668C732.79 116.145 733.22 115.719 733.74 115.719Z" fill="#1ED760"/>
<path d="M731 99.281C731 94.152 735.16 90 740.29 90C745.41 90 749.57 94.153 749.57 99.281C749.57 104.413 745.42 108.57 740.29 108.57C735.16 108.57 731 104.413 731 99.281Z" fill="#1ED760"/>
<path d="M542.74 115.719H555.69V115.723C556.22 115.723 556.64 116.149 556.64 116.672V173.149C556.64 173.679 556.21 174.099 555.69 174.099H542.74C542.22 174.099 541.79 173.679 541.79 173.149V116.668C541.79 116.145 542.22 115.719 542.74 115.719Z" fill="#1ED760"/>
<path d="M540 99.281C540 94.152 544.16 90 549.29 90C554.41 90 558.57 94.153 558.57 99.281C558.57 104.413 554.42 108.57 549.29 108.57C544.16 108.57 540 104.413 540 99.281Z" fill="#1ED760"/>
<path d="M271.768 174.769C287.92 174.769 299.258 166.439 299.258 151.596V151.383C299.258 138.355 290.701 132.909 275.512 128.958C262.569 125.647 259.36 124.046 259.36 119.133V118.92C259.36 115.289 262.676 112.406 268.987 112.406C275.298 112.406 281.823 115.182 288.455 119.774L297.012 107.387C289.417 101.3 280.111 97.8832 269.201 97.8832C253.905 97.8832 242.995 106.853 242.995 120.415V120.628C242.995 135.472 252.729 139.636 267.811 143.481C280.325 146.684 282.892 148.82 282.892 152.984V153.198C282.892 157.576 278.828 160.246 272.089 160.246C263.532 160.246 256.472 156.722 249.734 151.169L240 162.809C248.985 170.818 260.43 174.769 271.768 174.769Z" fill="#1ED760"/>
<path d="M305.959 190.786H322.217V166.226C326.068 170.818 331.416 174.769 340.08 174.769C353.665 174.769 366.179 164.304 366.179 145.189V144.976C366.179 125.861 353.451 115.396 340.08 115.396C331.63 115.396 326.175 119.347 322.217 124.686V116.464H305.959V190.786ZM335.909 160.993C328.314 160.993 322.003 154.693 322.003 145.189V144.976C322.003 135.472 328.314 129.171 335.909 129.171C343.503 129.171 349.921 135.472 349.921 144.976V145.189C349.921 154.8 343.503 160.993 335.909 160.993Z" fill="#1ED760"/>
<path d="M400.387 174.982C418.25 174.982 431.513 161.634 431.513 145.189V144.976C431.513 128.531 418.357 115.396 400.601 115.396C382.738 115.396 369.474 128.744 369.474 145.189V145.403C369.474 161.848 382.631 174.982 400.387 174.982ZM400.601 160.993C391.616 160.993 385.519 153.625 385.519 145.189V144.976C385.519 136.539 391.081 129.385 400.387 129.385C409.372 129.385 415.469 136.753 415.469 145.189V145.403C415.469 153.839 409.907 160.993 400.601 160.993Z" fill="#1ED760"/>
<path d="M456.763 174.662C462.219 174.662 466.176 173.38 469.599 171.351V158.324C467.246 159.605 464.572 160.353 461.577 160.353C457.94 160.353 456.336 158.537 456.336 154.8V130.346H469.813V116.464H456.336V101.834H440.077V116.464H433.231V130.346H440.077V157.469C440.077 170.711 446.816 174.662 456.763 174.662Z" fill="#1ED760"/>
<path d="M495.274 174.662C500.73 174.662 504.687 173.38 508.11 171.351V158.324C505.757 159.605 503.083 160.353 500.088 160.353C496.451 160.353 494.847 158.537 494.847 154.8V130.346H508.324V116.464H494.847V101.834H478.588V116.464H471.742V130.346H478.588V157.469C478.588 170.711 485.327 174.662 495.274 174.662Z" fill="#1ED760"/>
<path d="M569.785 173.701H586.044V130.346H598.987V117.105H585.83V114.862C585.83 110.591 587.969 108.669 591.713 108.669C594.494 108.669 596.74 109.202 599.094 110.057V96.6018C596.099 95.6407 592.676 95 587.541 95C581.765 95 577.38 96.495 574.385 99.485C571.39 102.475 569.785 107.067 569.785 113.367V116.998H563.047V130.346H569.785V173.701Z" fill="#1ED760"/>
<path d="M630.609 173.701H647.082V98.9511H630.609V173.701Z" fill="#1ED760"/>
<path d="M704.494 174.769C716.901 174.769 726.421 169.002 726.421 156.295V156.081C726.421 145.616 717.115 141.772 709.093 139.102C702.889 136.967 697.434 135.472 697.434 132.268V132.055C697.434 129.812 699.466 128.103 703.424 128.103C707.596 128.103 713.265 130.132 718.934 133.443L725.138 122.23C718.934 118.066 711.018 115.61 703.745 115.61C692.193 115.61 682.78 122.123 682.78 133.763V133.977C682.78 145.082 691.872 148.82 699.894 151.169C706.205 153.091 711.767 154.266 711.767 157.79V158.003C711.767 160.566 709.628 162.275 704.921 162.275C699.573 162.275 693.048 159.925 686.845 155.44L679.892 166.119C687.486 172.099 696.471 174.769 704.494 174.769Z" fill="#1ED760"/>
<path d="M758.586 173.701H774.845V141.772C774.845 134.083 778.802 130.132 785.006 130.132C791.21 130.132 794.847 134.083 794.847 141.772V173.701H811.105V136.646C811.105 123.512 803.939 115.396 791.638 115.396C783.402 115.396 778.588 119.774 774.845 124.58V116.464H758.586V173.701Z" fill="#1ED760"/>
<path d="M845.018 191C856.142 191 864.378 188.651 869.726 183.311C874.54 178.506 877 171.031 877 160.78V116.464H860.742V123.939C856.356 119.133 851.115 115.396 842.237 115.396C829.08 115.396 816.779 125.007 816.779 142.092V142.306C816.779 159.285 828.866 169.002 842.237 169.002C850.901 169.002 856.142 165.478 860.955 159.712V162.488C860.955 172.74 855.714 178.079 844.59 178.079C836.996 178.079 831.113 176.157 825.23 172.846L819.667 185.02C826.941 188.864 835.712 191 845.018 191ZM846.943 155.547C839.028 155.547 833.038 150.208 833.038 142.306V142.092C833.038 134.297 839.028 128.851 846.943 128.851C854.859 128.851 860.955 134.297 860.955 142.092V142.306C860.955 150.101 854.859 155.547 846.943 155.547Z" fill="#1ED760"/>
<path d="M895.964 128C903.254 128 909 122.075 909 115V114.928C909 107.854 903.326 102 896.036 102C888.746 102 883 107.925 883 115V115.072C883 122.146 888.674 128 895.964 128ZM895.964 126.564C889.428 126.564 884.508 121.428 884.508 115.072V115C884.508 108.644 889.464 103.436 896.036 103.436C902.572 103.436 907.492 108.572 907.492 114.928V115C907.492 121.356 902.536 126.564 895.964 126.564ZM890.649 121.536H893.702V117.083H896.036H896.108L899.052 121.536H902.608L899.232 116.58C900.992 115.934 902.213 114.533 902.213 112.307V112.235C902.213 111.014 901.818 109.972 901.064 109.218C900.094 108.249 898.657 107.71 896.79 107.71H890.649V121.536ZM893.702 114.461V110.403H896.682C898.191 110.403 899.124 111.086 899.124 112.414V112.486C899.124 113.635 898.298 114.461 896.754 114.461H893.702Z" fill="#1ED760"/>
</svg>
