<svg width="976" height="385" viewBox="0 0 976 385" fill="none" xmlns="http://www.w3.org/2000/svg">
<rect width="976" height="385" fill="white"/>
<g filter="url(#filter0_d)">
<path d="M201.216 178.576V135.952H236.064V178.576H263.28V72.016H236.064V112.048H201.216V72.016H174V178.576H201.216Z" fill="#002250"/>
<path d="M275.363 178.576H302.579V72.016H275.363V178.576Z" fill="#002250"/>
<path d="M327.525 178.576H354.741V95.92H375.621V72.016H306.501V95.92H327.525V178.576Z" fill="#002250"/>
<path d="M379.369 178.576H406.585V95.92H416.665C420.409 95.92 424.729 96.928 427.753 98.8C431.353 101.104 434.089 105.568 434.089 111.184C434.089 117.088 431.353 122.128 428.041 124.288C424.441 126.592 418.537 127.168 411.625 127.168H407.161L434.953 178.576H463.033L441.001 139.408C446.041 137.248 451.225 133.648 454.825 128.032C457.849 123.28 460.153 116.944 460.153 108.736C460.153 97.072 456.121 86.56 447.193 79.648C441.289 75.04 430.921 72.016 414.217 72.016H379.369V178.576Z" fill="#002250"/>
<path d="M492.311 163.168H529.607L534.647 178.576H564.455L523.559 72.016H500.087L457.895 178.576H487.415L492.311 163.168ZM522.551 141.568H499.079L510.599 104.416L522.551 141.568Z" fill="#002250"/>
<path d="M657.847 178.576H685.063V72.016H657.847V178.576Z" fill="#002250"/>
<path d="M688.586 126.592C688.586 153.952 711.05 180.592 744.602 180.592C777.722 180.592 801.05 154.96 801.05 125.296C801.05 95.632 777.578 70 744.746 70C715.37 70 688.586 91.6 688.586 126.448V126.592ZM715.802 125.008C715.802 110.032 726.026 93.904 744.89 93.904C764.474 93.904 773.834 111.616 773.834 125.44C773.834 139.12 764.474 156.688 745.178 156.688C726.89 156.688 715.802 141.424 715.802 125.152V125.008Z" fill="#002250"/>
<path d="M562.172 178.576H599.468C639.932 178.576 654.332 154.096 654.332 125.008C654.332 113.344 651.884 101.968 644.54 91.888C630.716 72.016 609.404 72.016 597.452 72.016H562.172V178.576ZM589.388 95.92H601.196C613.292 95.92 618.764 100.96 621.932 105.712C625.82 111.76 627.116 119.392 627.116 125.44C627.116 140.56 621.356 154.672 601.052 154.672H589.388V95.92Z" fill="#002250"/>
<path d="M381 202.576C353.64 202.576 327 225.04 327 258.592C327 291.712 352.632 315.04 382.296 315.04C411.96 315.04 437.592 291.568 437.592 258.736C437.592 229.36 415.992 202.576 381.144 202.576H381ZM382.584 229.792C397.56 229.792 413.688 240.016 413.688 258.88C413.688 278.464 395.976 287.824 382.152 287.824C368.472 287.824 350.904 278.464 350.904 259.168C350.904 240.88 366.168 229.792 382.44 229.792H382.584Z" fill="#002250"/>
<path d="M467.256 230.512V253.408H445.512V230.512H467.256Z" fill="#002250"/>
<path d="M467.256 264.064V286.96H445.512V264.064H467.256Z" fill="#002250"/>
<path d="M508.55 237.12C508.694 234.528 508.982 227.904 516.902 227.904C522.23 227.904 524.39 232.656 524.39 237.264C524.39 247.92 513.446 247.92 510.998 247.92H506.39V267.936H516.038C519.926 267.936 530.294 268.656 530.294 278.736C530.294 285.504 526.55 290.688 518.63 290.688C508.838 290.544 506.966 283.2 506.39 280.752H478.886C479.318 284.64 480.038 292.704 484.79 299.616C491.702 309.84 505.67 314.592 518.054 314.592C539.51 314.592 557.51 299.76 557.51 281.184C557.51 277.584 557.51 262.176 537.494 255.408C541.382 253.248 551.606 247.776 551.606 233.088C551.606 218.112 538.934 204 518.198 204C510.998 204 501.926 205.872 494.726 211.056C487.526 216.096 482.054 224.304 481.766 237.12H508.55Z" fill="#002250"/>
<path d="M623.336 267.848C620.744 272.744 615.992 278.504 606.056 278.504C594.68 278.504 587.048 269.864 587.048 258.2C587.048 252.44 588.92 247.256 592.232 243.512C595.688 239.768 600.44 237.608 606.056 237.896C615.992 237.896 620.744 243.656 623.336 249.128H647.528C643.496 229.544 626.36 215.576 605.192 215.576C581.288 215.576 563 234.584 563 258.056C563 281.816 581.576 300.824 605.768 300.824C627.368 300.824 643.352 285.992 647.672 267.848H623.336Z" fill="#002250"/>
</g>
<defs>
<filter id="filter0_d" x="170" y="70" width="635.05" height="253.04" filterUnits="userSpaceOnUse" color-interpolation-filters="sRGB">
<feFlood flood-opacity="0" result="BackgroundImageFix"/>
<feColorMatrix in="SourceAlpha" type="matrix" values="0 0 0 0 0 0 0 0 0 0 0 0 0 0 0 0 0 0 127 0"/>
<feOffset dy="4"/>
<feGaussianBlur stdDeviation="2"/>
<feColorMatrix type="matrix" values="0 0 0 0 0 0 0 0 0 0 0 0 0 0 0 0 0 0 0.25 0"/>
<feBlend mode="normal" in2="BackgroundImageFix" result="effect1_dropShadow"/>
<feBlend mode="normal" in="SourceGraphic" in2="effect1_dropShadow" result="shape"/>
</filter>
</defs>
</svg>
