<svg xmlns="http://www.w3.org/2000/svg" viewBox="0 0 2500 2437.5"><defs><style>.cls-1{fill:#2e001e;}.cls-2{fill:#ff2bc2;}</style></defs><title>Asset 1</title><g id="Layer_2" data-name="Layer 2"><g id="ps_cc_app_RGB.svg"><path class="cls-1" d="M104.17,104.17H2395.83V2333.33H104.17Z"/><path class="cls-2" d="M330.15,1808.51V703q0-12,10.32-13.76,185.7-3.42,330.12-3.44,273.38,0,416.07,153t142.73,402.34q0,132.39-37,236.41T1097.84,1646q-57.58,64.5-137.54,106.59t-158.19,58.46a792.31,792.31,0,0,1-162.47,16.33q-161.62,0-299.17-3.44Q330.15,1824,330.15,1808.51ZM539.91,845.65v821.86q55,3.45,110,3.44,170.2,0,266.52-102.3t96.28-322.38q0-206.31-90.27-305.18T670.59,842.21Q567.42,842.21,539.91,845.65Z"/><path class="cls-2" d="M1430.52,598.06h184q13.76,0,13.77,12.05V1000.4q82.52-29.24,165-29.23,170.22,0,273.38,113.47t103.17,297.45q0,213.21-126.38,335.27t-308.62,122.08q-182.28,0-306-60.18-10.32-5.13-10.3-17.18V608.39Q1418.5,598.06,1430.52,598.06Zm526.13,799.51q0-132.39-56.73-201.16t-153-68.78q-65.36,0-118.63,25.79v514.09q48.13,24.06,120.35,24.07,87.69,0,147.86-74.8T1956.65,1397.57Z"/><path class="cls-2" d="M0,0V2437.5H2500V0ZM104.17,104.17H2395.83V2333.33H104.17Z"/></g></g></svg>