<svg xmlns="http://www.w3.org/2000/svg" viewBox="0 0 720.36 426.36"><defs><style>.cls-1{fill:#fff;}.cls-2,.cls-3{fill:#e20014;}.cls-2,.cls-4{fill-rule:evenodd;}</style></defs><title>Asset 1</title><g id="Layer_2" data-name="Layer 2"><g id="svg13225"><rect class="cls-1" width="720.36" height="426.36"/><path id="path1979" d="M139.82,128.93v79.14H98.39V133.61c0-25.66-34.06-25.66-34.06,0v74.46H23v-123H64.33V94.9c30.2-26.39,75.49-9.82,75.49,34"/><g id="ute"><path id="e" class="cls-2" d="M652.12,126.45a13.58,13.58,0,0,1,1.82,5.8l-42.55-.14c1.23-7.18,7.48-14.4,14.64-16.11a22.25,22.25,0,0,1,26.09,10.45m38.64-10.23c6.27,11.62,7.73,26.51,5.71,41l-15.24.16-70.54,0c.28,6.58,4.45,13.08,10.6,16.84,6.74,4.37,17.06,3.79,23.7-.52a28.35,28.35,0,0,0,7.92-8.52l42,.17c-4.56,21.49-25.74,41.31-47,45.58-25.77,5.47-50.89-3.22-67.08-24.34-15.37-19.37-17.37-51.34-4.93-72.64,13.67-23.37,38.59-36.72,65.76-33a66.71,66.71,0,0,1,49.11,35.27"/><path id="t" class="cls-3" d="M542.7,85.08h23.43v34H542.7l-.1,49.09c.1,4,3.26,7.61,7.26,7.67l16.27-.06v32.3h-39.5c-9.79-.27-19.32-8.37-22.42-17.47a45.08,45.08,0,0,1-2.68-15.86l.15-55.67H485l.12-34h16.61V60.28l41-16.62V85.08"/><path id="u" d="M363.13,164.24V85.08h41.44v74.46c0,25.68,34.05,25.68,34.05,0V85.08h41.29v123H438.62v-9.79c-30.2,26.38-75.49,9.79-75.49-34"/></g><path id="e-2" data-name="e" class="cls-2" d="M237.49,125.16a13.52,13.52,0,0,1,1.81,5.8l-42.55-.15c1.24-7.17,7.49-14.39,14.64-16.1a22.25,22.25,0,0,1,26.1,10.45m38.63-10.23c6.27,11.62,7.73,26.51,5.71,41l-15.24.16-70.54,0c.29,6.58,4.45,13.08,10.6,16.83,6.74,4.38,17.06,3.8,23.7-.51a28.34,28.34,0,0,0,7.92-8.52l42,.17c-4.55,21.49-25.74,41.31-47,45.58-25.76,5.47-50.89-3.22-67.08-24.34C150.81,166,148.81,134,161.25,112.68,174.93,89.31,199.84,76,227,79.66a66.68,66.68,0,0,1,49.11,35.27"/><path id="t-2" data-name="t" class="cls-3" d="M291.71,305.48H305.1v21.34H291.71l0,30.82c0,2.54,1.55,4.78,3.46,4.82l10,0V382.7H284c-4.67-.17-9.22-5.26-10.69-11a36.19,36.19,0,0,1-1.28-10l.07-34.95H258.75V305.48h13.39V289.92l19.57-10.44v26"/><path id="e-3" data-name="e" class="cls-4" d="M53.93,331.06A8.22,8.22,0,0,1,55,334.54l-25.52-.09c.74-4.31,4.49-8.63,8.78-9.66a13.34,13.34,0,0,1,15.65,6.27m23.17-6.14c3.76,7,4.64,15.9,3.42,24.58l-9.14.1-42.3,0a13,13,0,0,0,6.35,10.09c4,2.62,10.24,2.28,14.22-.31a16.9,16.9,0,0,0,4.75-5.11l25.16.1c-2.73,12.89-15.44,24.78-28.17,27.34-15.45,3.28-30.51-1.93-40.23-14.6C2,355.53.75,336.35,8.21,323.58c8.2-14,23.14-22,39.43-19.81A40,40,0,0,1,77.1,324.92"/><path class="cls-3" d="M168.42,352.55a39.24,39.24,0,0,1-77.42-9c0-21.46,16.72-38.84,38.58-38.84,19.35,0,35,12.77,38.71,30.68H146.17c-2.37-5-6.72-10.27-15.8-10.27-10.4-.53-17.38,8-17.38,18.56s7,18.57,17.38,18.57c9.08,0,13.43-5.27,15.8-9.74Z"/><path class="cls-3" d="M180.4,285.26h21.86v31.08h.26c3.69-6.59,11.06-9.22,18.83-9.22,7,0,15.27,2.5,19.88,8,6.19,7.24,6.85,13.7,6.85,26.73V382.7H226.22V342.93c0-3.55,0-15.27-11.72-15.27-12.24,0-12.24,10.93-12.24,14.48V382.7H180.4Z"/><path d="M385.66,309.62h20.41v7.77h.26c2.24-3.55,6.85-10.27,19.89-10.27,7,0,14.74,2.9,18.69,6.32s8.43,9.22,8.43,23.57V382.7H431.48V342.8c0-5.13,0-15.14-11.45-15.14-12.51,0-12.51,10.8-12.51,15.27V382.7H385.66Z"/><path class="cls-3" d="M490.73,301.85H468.87V285.26h21.86Zm0,80.85H468.87V309.62h21.86Z"/><path class="cls-3" d="M580.39,352.55a39.24,39.24,0,0,1-77.42-9c0-21.46,16.73-38.84,38.58-38.84,19.36,0,35,12.77,38.71,30.68H558.14c-2.37-5-6.71-10.27-15.8-10.27-10.4-.53-17.38,8-17.38,18.56s7,18.57,17.38,18.57c9.09,0,13.43-5.27,15.8-9.74Z"/><path class="cls-3" d="M592.38,285.26h21.85v31.08h.27c3.68-6.59,11-9.22,18.82-9.22,7,0,15.28,2.5,19.89,8,6.18,7.24,6.84,13.7,6.84,26.73V382.7H638.2V342.93c0-3.55,0-15.27-11.72-15.27-12.25,0-12.25,10.93-12.25,14.48V382.7H592.38Z"/><path id="t-3" data-name="t" class="cls-3" d="M697.73,304h13.39v21.34H697.73l0,30.82c0,2.54,1.55,4.78,3.46,4.82l10,0v20.28h-21c-4.67-.17-9.22-5.26-10.7-11a36.58,36.58,0,0,1-1.27-10l.06-34.95H664.78V304h13.38V288.48L697.73,278v26"/></g></g></svg>