<svg xmlns="http://www.w3.org/2000/svg" viewBox="0 0 670.06 234.83"><defs><style>.cls-1{fill:#d22027;}.cls-2{fill:#fff;}</style></defs><title>Asset 1</title><g id="Layer_2" data-name="Layer 2"><g id="Logo_REWE" data-name="Logo REWE"><path id="Hintergrund" class="cls-1" d="M0,234.83H670.06V0H0Z"/><path class="cls-2" d="M43.54,206.17c-9.66,0-13.84-4.18-13.84-13.84V42.76c0-9.92,4.18-14.09,13.84-14.09h50.9c54.81,0,75.7,20.88,75.7,56.12,0,21.4-11.49,39.41-37.33,48.29l40.72,56.12c2.35,3.39,3.39,6,3.39,8.35,0,5.74-6.52,8.62-14.09,8.62h-30c-8.88,0-12.27-3.66-18.54-13.58L80.86,139.08h-.52v53.25c0,9.66-4.18,13.84-14.09,13.84ZM95,108.54c15.4,0,21.93-6.52,21.93-20.62S110.36,67.3,95,67.3H80.34v41.24H95"/><path class="cls-2" d="M536.73,206.12c-9.65,0-13.31-3.66-13.31-13.31V42.19c0-9.92,3.66-13.57,13.31-13.57h90.06c9.92,0,13.57,3.65,13.57,13.57V55c0,9.66-3.65,13.31-13.57,13.31H575.1V97.53H619c9.92,0,13.57,3.65,13.57,13.57v11.75c0,9.66-3.65,13.31-13.57,13.31H575.1v30.28h59.52c9.92,0,13.57,3.66,13.57,13.58v12.79c0,9.65-3.65,13.31-13.57,13.31Z"/><path class="cls-2" d="M211.64,206.17c-9.66,0-13.84-4.18-13.84-13.84V42.76c0-9.92,4.18-14.09,13.84-14.09h89c9.92,0,14.1,4.17,14.1,14.09V54.51c0,9.66-4.18,13.83-14.1,13.83H249.49V97.58h43.33c9.92,0,14.09,4.17,14.09,14.09v10.71c0,9.65-4.17,13.83-14.09,13.83H249.49v30.28h59c9.92,0,14.1,4.18,14.1,14.09v11.75c0,9.66-4.18,13.84-14.1,13.84Z"/><g id="U"><path class="cls-2" d="M481.19,28.67a13.57,13.57,0,0,1,13.57,13.57v67.81c0,69.6-26.51,96.12-71.26,96.12-41.43,0-79.21-18.63-79.21-96.12V42.24a13.56,13.56,0,0,1,13.57-13.57Zm-87.85,82c0,19.56,0,46.4,26.18,46.4s26.19-26.84,26.19-46.4v-82H393.34v82h0"/><path class="cls-1" d="M368.81,49.68v-21h11a13.57,13.57,0,0,1,13.57,13.57v7.44H368.81m24.53-21H368.81v21h24.53Z"/><rect class="cls-2" x="364.45" y="28.67" width="6.82" height="21.8"/><rect class="cls-2" x="378.22" y="37.97" width="6.82" height="23.41" transform="translate(331.95 431.31) rotate(-90)"/><path class="cls-1" d="M470.23,49.68v-21h-11a13.56,13.56,0,0,0-13.57,13.57v7.44h24.52m-24.52-21h24.52v21H445.71Z"/><rect class="cls-2" x="467.77" y="28.67" width="6.82" height="21.8" transform="translate(942.36 79.13) rotate(180)"/><rect class="cls-2" x="454" y="37.97" width="6.82" height="23.41" transform="translate(407.73 507.09) rotate(-90)"/><rect class="cls-1" x="393.34" y="26.28" width="52.37" height="14.83"/><rect class="cls-1" x="381.91" y="27.79" width="12.69" height="0.97"/><rect class="cls-1" x="444.74" y="27.9" width="12.69" height="0.85"/></g></g></g></svg>