<svg xmlns="http://www.w3.org/2000/svg" viewBox="0 0 369.09 112.17"><defs><style>.cls-1{fill:#fff;}.cls-2{fill:#231f20;}</style></defs><title>Asset 1</title><g id="Layer_2" data-name="Layer 2"><g id="Layer_1-2" data-name="Layer 1"><rect class="cls-1" width="369.09" height="112.17"/><path class="cls-2" d="M57.94,73.08a42.66,42.66,0,0,0,4.68,2.61l.15.07v.17c.18,1.95.48,4.18,1.9,5.87.25.24,1.39.29,3,0,1.26-.52,1.39-1.84,1.51-3l0-.29,0-.32,1.81.34c1.34.26,2.85.56,4.84.81,10.27,1.28,24.5-1.33,30.84-12.88C112,55.56,102.46,45,96.32,39.72a72,72,0,0,0-6-4.63C80,28.6,59.49,18.62,38.4,24.71c-2.53.88-3.33,3.72-3.57,5.05.92,1,2.24,1,3.78,1h.73l.46-.18c.37-.13.54-.23.61-.4-.34-.58-1-.72-1.71-.87a3.83,3.83,0,0,1-1.56-.55l-.28-.2.24-.25a2.3,2.3,0,0,1,1.28-.54,2.44,2.44,0,0,0,.78-.23l.05,0h0c17-2.49,34.68,2.16,49.85,13.09,7,5,14.72,13.13,12.15,23.25-2.53,7.32-11.22,11-25.82,10.79a17,17,0,0,1-6.08-1.1l-.2-.08v-.21C69.24,67,69.1,59.59,69,56.58V56.3l.29,0a45,45,0,0,1,17.17,3.31.71.71,0,0,1,.34.57v0c0,.73-1,1.6-2.42,2.75l-.85.71s0,0,0,.05a0,0,0,0,0,0,0,4.09,4.09,0,0,0,2.83.71,6.76,6.76,0,0,0,4.83-4.06,3.75,3.75,0,0,0,.19-1.16,5.23,5.23,0,0,0-1.63-3.41C84.52,51.36,77.29,51.2,70.3,51l-1.21,0,0-1.17a54.18,54.18,0,0,0-.6-7.93c-.43-2-1.35-3-3-3.45-1.17,1.43-1.4,3.27-1.62,5.21L63.42,48l-.36,3.39,0,.21L56.4,53c-2.89.69-10.78,3.48-10.78,7.46a2.92,2.92,0,0,0,0,.51C46.8,65.47,54.63,70.94,57.94,73.08Zm-11-12.63c.38-1,2.26-1.58,4.16-2.11l.21-.05a51,51,0,0,1,11.39-1.64l.33,0L63,57c-.32,4.89-.4,10.49-.36,14.11v.4l-.39-.12C57.66,70,51.31,67.17,47,61.45A1.07,1.07,0,0,1,46.9,60.45Z"/><path class="cls-2" d="M114.94,52.09a4.83,4.83,0,0,1,.75-1l.14-.11.16.06c4.1,1.61,8.63.5,13.47-3.3,2.87-2.44,6.45-5.48,5.08-9.42a4.55,4.55,0,0,0-4-2.46h-.14l-.09-.12a7.06,7.06,0,0,0-6.87-2.51c-4.92.89-11.31,4-13.16,9.81a7.44,7.44,0,0,0-.15,1.45,5.61,5.61,0,0,0,1.78,4.17l.12.1,0,.15a12,12,0,0,0-.11,1.46A2.86,2.86,0,0,0,113,53C114,53.49,114.35,53,114.94,52.09Zm15.79-13.51c.5.16.8.38,1.1,1.17.69,1.86-1.6,4.44-3.53,5.6-2.59,1.4-6.09,3-10.27,2.46l-.36,0,.11-.35a10.87,10.87,0,0,1,3-4.08C122.94,41.25,127,37.35,130.73,38.58Zm-15.81,2,.21-.26c.94-.92,2.85-2.46,5-2.35l.83,0-.66.5A27,27,0,0,0,114,45.28l-.27.4-.24-.42C112.5,43.54,113.84,41.88,114.92,40.54Z"/><path class="cls-2" d="M116.37,76.39c0,2.08,0,4.21,2.21,4.65a4.34,4.34,0,0,0,2.69-.27.59.59,0,0,0,.2-.19c.14-1.72.2-3.48.2-5.28,0-4.65-.39-9.49-.76-14.21l-.16-2.1a3.62,3.62,0,0,0-2.21-2.63c-.68,0-1,1.19-1.16,1.84l0,.09a100.52,100.52,0,0,0-1,14.53c0,.93,0,1.87,0,2.8Z"/><path class="cls-2" d="M175.44,81.13c3.39-.53,8-1.72,8.9-5.91.54-3.36-.08-5.72-1.86-7.22-2.88-1.94-6.57-2.21-10.13-2.47A28.09,28.09,0,0,1,164,64l-.11,0-.15-.64c.06-.24.29-.37.55-.5a48.35,48.35,0,0,1,10.62-1.56A55.6,55.6,0,0,0,184,60.22a2.08,2.08,0,0,0,1.14-1.2,1.14,1.14,0,0,0,.09-.75,5,5,0,0,0-2.95-1.14l-.24,0c-6.62-1.12-15.74-1.28-21.55,4.34-.84.9-.84,2.59-.75,4.07a3.25,3.25,0,0,0,1.95,1.87,39.58,39.58,0,0,0,6.67.69c4.43.22,9,.44,12.52,3.22a1.43,1.43,0,0,1,.3,1.21A2.14,2.14,0,0,1,180,73.82c-4.38,1.82-9.66,3.51-15.69,2.24a2.74,2.74,0,0,1-1.7-1.27,1.06,1.06,0,0,1,0-1c1.75-2.66,4.34-1.58,6.63-.63a12.3,12.3,0,0,0,2.56.87c1.22.26,4.25-.06,5.75-1.61a.43.43,0,0,0,0-.14.31.31,0,0,0,0-.11c-.22-.53-1.71-1-2.2-1.1-4.54-1.24-9.65-2.19-13.06.14a3.87,3.87,0,0,0-1.09,4.22C164.53,80.78,170.73,81.87,175.44,81.13Z"/><path class="cls-2" d="M266.83,68.13a38.34,38.34,0,0,0-6.72-8.69.73.73,0,0,0-.62-.17,1.64,1.64,0,0,0-1,.88c-1.9,3.88-2.93,8.32-3.32,14.38l0,.71c-.2,2.64-.42,5.64,2,6.87.72.24,1.66.11,1.89-.44,1-3.33,1.1-7.18,1.18-10.9l.07-2.69c0-.28.14-1.13.58-1.27a.46.46,0,0,1,.52.23c2.12,4.09,4.25,7.64,6.06,10.58l.12.19c1,1.67,1.91,3.11,3.67,3a6.3,6.3,0,0,0,4.28-3.25,20.15,20.15,0,0,0,1.06-6.65,25,25,0,0,0-3.48-12.65l-.27-.43c-1.11-1.72-2.36-3.67-4.25-4.15a.29.29,0,0,0-.29.09,2.07,2.07,0,0,0,0,1.54L269.52,60a55.92,55.92,0,0,1,2.21,10.41l.07.61a4,4,0,0,1-.4,3l-.23.29-.24-.28A63,63,0,0,1,266.83,68.13Z"/><path class="cls-2" d="M285.91,83.11c5.33,1,9.78-1.87,14.22-5.17.18-.18.12-.55.07-.76a3.61,3.61,0,0,0-1.07-1.81,19,19,0,0,0-6,.5,24.64,24.64,0,0,1-5.12.59h-.35l.06-.35a15.5,15.5,0,0,1,1.77-5l.07-.12.14,0a29.69,29.69,0,0,1,3.63-.21c2.29-.05,4.68-.1,5.78-1a2.45,2.45,0,0,0,.18-1.69,2.14,2.14,0,0,0-.23-.73c-2.06-.71-4.77-.54-6.94-.41l-.76,0-.43,0,.53-1.71.87-2.73.24,0a32.77,32.77,0,0,0,5.74-.1l1.28,0c1.54,0,3.15-.09,4.09-1.14.27-.54-1-2.45-1.9-3.17s-1.19-.88-1.59-.93c-2.88-.4-8.4.5-13.27,1.29l-3.22.52a.38.38,0,0,0-.24.1c-.09.15.06.57.13.81.28,1.31,1.31,1.57,2.52,1.87a7.29,7.29,0,0,1,1.67.56l.24.13-.67,1.71A13.12,13.12,0,0,1,286,67.18l0,.09-.84.19c-.8.13-1.29.25-1.35,1a2,2,0,0,0,.2.86,3,3,0,0,1,.29,1.42v0l-.59,1.38c-.79,1.76-1.6,3.58-1.18,5.7C283.37,80.88,284.6,82.82,285.91,83.11Z"/><path class="cls-2" d="M135.29,80.83c5.33,1,9.78-1.87,14.22-5.17.18-.18.13-.55.07-.76a3.61,3.61,0,0,0-1.07-1.81,19,19,0,0,0-6,.5,24.64,24.64,0,0,1-5.12.59h-.35l.06-.35a15.5,15.5,0,0,1,1.77-5l.07-.12.14,0a29.69,29.69,0,0,1,3.63-.21c2.29,0,4.68-.1,5.78-1a2.45,2.45,0,0,0,.18-1.69,2.25,2.25,0,0,0-.23-.73c-2.06-.71-4.77-.54-6.94-.41l-.76,0-.43,0,.53-1.71.87-2.73.24,0a32.77,32.77,0,0,0,5.74-.1l1.28-.05c1.55,0,3.15-.09,4.1-1.14.27-.54-1-2.45-1.91-3.16S150,55,149.58,55c-2.88-.4-8.4.5-13.27,1.29l-3.22.52a.4.4,0,0,0-.24.1c-.09.15.06.57.13.82.28,1.3,1.31,1.56,2.52,1.86a7.29,7.29,0,0,1,1.67.56l.24.13L136.74,62a13.4,13.4,0,0,1-1.36,2.94l0,.09-.84.18c-.8.13-1.29.25-1.35.95a2,2,0,0,0,.2.86,3,3,0,0,1,.29,1.42v0l-.59,1.38c-.79,1.76-1.6,3.58-1.17,5.7C132.75,78.6,134,80.54,135.29,80.83Z"/><path class="cls-2" d="M314.36,69.06a4.56,4.56,0,0,0,.75,1l.14.12.16-.07c4.1-1.61,8.63-.5,13.47,3.3,2.88,2.44,6.46,5.48,5.09,9.42a4.56,4.56,0,0,1-4,2.46h-.15l-.09.12a7,7,0,0,1-6.87,2.51c-4.91-.89-11.31-4-13.16-9.81a7.44,7.44,0,0,1-.15-1.45,5.54,5.54,0,0,1,1.79-4.16l.11-.11,0-.15a11.81,11.81,0,0,1-.11-1.46,2.83,2.83,0,0,1,1.14-2.58C313.39,67.66,313.77,68.16,314.36,69.06Zm15.8,13.51c.49-.16.79-.38,1.09-1.17.7-1.85-1.6-4.43-3.53-5.59-2.59-1.41-6.09-3-10.26-2.47l-.37,0,.12.35a10.73,10.73,0,0,0,3,4.08C322.37,79.9,326.37,83.8,330.16,82.57Zm-15.82-2,.21.26c.95.93,2.85,2.46,5,2.35l.83,0-.66-.49a27.3,27.3,0,0,1-6.36-6.81l-.27-.41-.24.43C311.92,77.61,313.26,79.27,314.34,80.61Z"/><path class="cls-2" d="M315.79,44.76c0-2.07,0-4.21,2.21-4.65a4.42,4.42,0,0,1,2.69.28.51.51,0,0,1,.2.18c.14,1.72.2,3.49.2,5.28,0,4.65-.39,9.49-.76,14.22l-.16,2.09A3.62,3.62,0,0,1,318,64.79c-.68,0-1-1.18-1.16-1.83l0-.09a99.33,99.33,0,0,1-1-14.54c0-.93,0-1.86,0-2.8Z"/><path class="cls-2" d="M209.79,41.76c3.4.53,8,1.72,8.9,5.91.54,3.36-.08,5.72-1.86,7.22-2.88,1.94-6.57,2.21-10.13,2.48a27.77,27.77,0,0,0-8.38,1.48l-.1,0-.16.64c.06.24.29.37.55.5a48.35,48.35,0,0,0,10.62,1.56,55.6,55.6,0,0,1,9.12,1.16,2.08,2.08,0,0,1,1.14,1.2,1.23,1.23,0,0,1,.1.75,5,5,0,0,1-3,1.14l-.24,0c-6.62,1.12-15.74,1.28-21.55-4.34-.83-.9-.84-2.59-.75-4.07A3.25,3.25,0,0,1,196,55.52a39.58,39.58,0,0,1,6.67-.69c4.43-.22,9-.44,12.52-3.22a1.43,1.43,0,0,0,.3-1.21,2.14,2.14,0,0,0-1.15-1.33c-4.38-1.82-9.66-3.51-15.69-2.24A2.8,2.8,0,0,0,197,48.1a1.06,1.06,0,0,0,0,.95c1.75,2.66,4.34,1.58,6.63.63a12.3,12.3,0,0,1,2.56-.87c1.22-.26,4.25.06,5.75,1.61a.51.51,0,0,1,0,.14.31.31,0,0,1,0,.11c-.22.53-1.71,1-2.2,1.1-4.54,1.24-9.65,2.19-13.06-.14a3.87,3.87,0,0,1-1.09-4.22C198.88,42.11,205.08,41,209.79,41.76Z"/><path class="cls-2" d="M199.28,70.45a4.14,4.14,0,0,0,.75,1l.14.12.16-.07c4.1-1.61,8.63-.49,13.46,3.3,2.88,2.45,6.46,5.48,5.09,9.43a4.56,4.56,0,0,1-4,2.46h-.15l-.08.12a7.09,7.09,0,0,1-6.88,2.51c-4.91-.89-11.3-4-13.15-9.82a7.36,7.36,0,0,1-.15-1.45,5.55,5.55,0,0,1,1.78-4.16l.11-.1,0-.15a12,12,0,0,1-.11-1.47,2.84,2.84,0,0,1,1.13-2.58C198.3,69.05,198.68,69.54,199.28,70.45ZM215.07,84c.49-.16.8-.39,1.09-1.18.7-1.85-1.59-4.43-3.53-5.59a17,17,0,0,0-10.26-2.47l-.37,0,.12.35a10.76,10.76,0,0,0,3,4.08C207.28,81.29,211.28,85.19,215.07,84Zm-15.82-2s.19.24.22.26c.94.93,2.84,2.46,5,2.35l.83,0-.67-.49a27.11,27.11,0,0,1-6.35-6.81l-.27-.4-.24.42C196.84,79,198.18,80.66,199.25,82Z"/></g></g></svg>