<svg xmlns="http://www.w3.org/2000/svg" xmlns:xlink="http://www.w3.org/1999/xlink" viewBox="0 0 699.84 160.2"><defs><style>.cls-1{fill:#fff;}.cls-2,.cls-4{fill-rule:evenodd;}.cls-2{fill:url(#linear-gradient);}.cls-3,.cls-4{fill:#424242;}</style><linearGradient id="linear-gradient" x1="-49.49" y1="492.59" x2="-50.49" y2="491.59" gradientTransform="matrix(104.77, 0, 0, -123.1, 5337.36, 60660.79)" gradientUnits="userSpaceOnUse"><stop offset="0" stop-color="#025e63"/><stop offset="1" stop-color="#2c3b84"/></linearGradient></defs><title>Asset 1</title><g id="Layer_2" data-name="Layer 2"><g id="Layer_1-2" data-name="Layer 1"><rect class="cls-1" width="699.84" height="160.2"/><path class="cls-2" d="M74.25,69.09c23.5-8.1,27.5-29.2,24.5-48.6a1,1,0,0,1,1.2-1c22.5,11,47.8,35,47.8,71,0,27.6-21.4,52-52.5,52a50,50,0,0,1-28.2-92.7.89.89,0,0,1,1.4.7c.3,3.7,1.3,13,5.4,18.6Z"/><rect class="cls-3" x="320.16" y="52.25" width="20.8" height="84.7"/><path class="cls-4" d="M330.46,17.65A12.5,12.5,0,1,1,318,30.25,12.72,12.72,0,0,1,330.46,17.65Z"/><path class="cls-4" d="M396.86,50.15c18,0,27.9,9.8,27.9,27.7v59H404v-54c-.4-9.6-5-14-14.8-14-8.8,0-15.9,5.4-19.5,10v58h-20.8V52.35h20.8v9a39.57,39.57,0,0,1,27.2-11Z"/><path class="cls-4" d="M494,61.05V21.25h20.8v115.8H494v-8.8a34.26,34.26,0,0,1-24.7,10.7c-22.7,0-37.9-17.8-37.9-44.3s15.2-44.4,37.9-44.4A34,34,0,0,1,494,61.05ZM494,79a25.65,25.65,0,0,0-19.6-10c-12.9,0-21.5,10.3-21.5,25.7s8.6,25.6,21.5,25.6c7.5,0,15.7-4,19.6-9.8Z"/><path class="cls-4" d="M563.36,50.25c24.6,0,41.7,19,41.7,46V102h-62.9c2.1,11.9,11.5,19.5,24.3,19.5,8.1,0,17-3.5,22.1-8.6l1.4-1.2,9.9,14.2-1,.9a48.59,48.59,0,0,1-34.1,12.2c-26,0-44.3-18.3-44.3-44.4a42.8,42.8,0,0,1,41.27-44.27c.58,0,1.15,0,1.73,0Zm-21.3,36h42.7c-1.2-12.7-11.7-18.5-21.4-18.5-14.6,0-20.1,11-21.3,18.6Z"/><path class="cls-4" d="M655.36,50.25h1.5v21l-1.8-.3a28.08,28.08,0,0,0-5.3-.5c-6.7,0-16,4.7-19.5,9.7v56.7h-20.8V52.25h20.9v9.4C637.26,54.45,646.36,50.25,655.36,50.25Z"/><path class="cls-4" d="M230.12,50.2c18,0,27.9,9.8,27.9,27.7v59h-20.8v-54c-.4-9.6-5-14-14.8-14-8.8,0-15.9,5.4-19.5,10v58h-20.8V52.4h20.8v9a39.57,39.57,0,0,1,27.2-11Z"/><path class="cls-4" d="M257.92,61.4a39.57,39.57,0,0,1,27.2-11v-.2c18,0,27.9,9.8,27.9,27.7v59h-20.8v-54c-.4-9.6-5-14-14.8-14-8.8,0-15.9,5.4-19.5,10v58h-20.8V80.07Z"/></g></g></svg>