<svg xmlns="http://www.w3.org/2000/svg" viewBox="0 0 147.4 154.49"><defs><style>.cls-1{fill:#fff;}.cls-2{fill:#c82128;}.cls-3{fill:#233485;}.cls-4{fill:#2490d7;}</style></defs><title>Asset 1</title><g id="Layer_2" data-name="Layer 2"><g id="svg9778"><path id="path9693" class="cls-1" d="M0,154.49H147.4V0H0Z"/><path id="path9695" class="cls-2" d="M144.57,2.84H2.84V151.65H144.57ZM138.9,146H8.5V8.51H138.9Z"/><path id="path9697" class="cls-3" d="M15.59,109.13H131.81V138.9H15.59Z"/><path class="cls-1" d="M20.73,113.54h8.5v7.37h3.91v-7.37h8.52v20.79H33.14v-7.92H29.23v7.92h-8.5Z"/><path class="cls-1" d="M66.54,124c0,6-3.64,10.89-11.62,10.89-7.78,0-11.32-5.07-11.32-10.9s3.48-11,11.66-11C62.66,113,66.54,118,66.54,124Zm-14.19-.12c0,3.49.58,5.76,2.8,5.76s2.68-2.15,2.68-5.61c0-3.75-.47-5.81-2.76-5.81C53.08,118.2,52.35,120.19,52.35,123.86Z"/><path class="cls-1" d="M68.49,113.54H86v5.51H76.81v2.79h8.56v5.56H76.81v6.93H68.49Z"/><path class="cls-1" d="M105.15,126.62H96v2.21h9.52v5.5H87.93V113.54h17.62v5.51H96v2.06h9.12Z"/><path class="cls-1" d="M116.12,127v7.35h-8.18V113.54h12.48c5.49,0,7.76,2.75,7.76,5.81a5,5,0,0,1-3.54,5c2,.66,3.16,2.58,3.16,5.68v4.32h-8.32v-5.17c0-1.37-.32-2.18-2-2.18Zm0-4.9h1.63c1.43,0,2.1-.71,2.1-1.79s-.66-1.75-2.14-1.75h-1.59Z"/><path class="cls-4" d="M93,85V79.32H54.37V85m-8.46,16.9H35.68V15.45H45.91m65.81,86.44H101.49V15.4h10.23"/><path class="cls-3" d="M54.37,86.41H93v3.8H54.37m0-15.88H93v3.61H54.37m0,24H47.09V15.45h7.28M27.22,101.93H34.5V15.45H27.22m93,86.44H112.9V15.4h7.28M93,101.89h7.28V15.4H93"/></g></g></svg>