<svg xmlns="http://www.w3.org/2000/svg" viewBox="0 0 607 303"><defs><style>.cls-1{fill:#fff;}.cls-2{fill:#0f0d0e;}.cls-3{fill:#231f20;}.cls-4{fill:#212020;}.cls-5{fill:#95d0ea;}.cls-6{fill:#9cd9ee;}.cls-7{fill:#7db8e4;}.cls-8{fill:#9ad1e6;}.cls-9{fill:#030303;}.cls-10{fill:#9ad8ee;}.cls-11{fill:#f2c8b0;}.cls-12{fill:#c19983;}.cls-13{fill:#9bd7ed;}.cls-14{fill:#9fdaef;}.cls-15{fill:#fcfdff;}.cls-16{fill:#fcfcfd;}.cls-17{fill:#ad6056;}.cls-18{fill:#ad5e54;}.cls-19{fill:#ab5e54;}.cls-20{fill:#ab5d54;}.cls-21{fill:#faf8f7;}.cls-22{fill:#f9f5f4;}</style></defs><title>Asset 1</title><g id="Layer_2" data-name="Layer 2"><g id="Layer_1-2" data-name="Layer 1"><rect class="cls-1" width="607" height="303"/><path class="cls-2" d="M217.15,100.68V40.46c0-1.14-.63-2.08-1.41-2.08h-17c-.78,0-1.48,1.18-1.48,2.32V127c0,2.53,1.08,3.28,2.48,3.28h15.31c1.68,0,2.09-1.2,2.09-3.33Z"/><path class="cls-2" d="M457.39,203.07H440.48a1.42,1.42,0,0,0-1.4,1.43v43.72a19.1,19.1,0,0,1-10.4,3.15c-6.1,0-7.72-2.77-7.72-8.74V204.5a1.42,1.42,0,0,0-1.4-1.43H402.39a1.42,1.42,0,0,0-1.4,1.43v41c0,17.74,9.88,22.08,23.48,22.08,11.15,0,20.15-6.16,20.15-6.16a34.16,34.16,0,0,0,.62,3.63,1.49,1.49,0,0,0,1.24.77l10.92-.05a1.42,1.42,0,0,0,1.41-1.42V204.5A1.42,1.42,0,0,0,457.39,203.07Z"/><path class="cls-2" d="M428.76,60.07H414.85l0-18.38c0-.7-.36-1-1.17-1h-19c-.74,0-1.13.32-1.13,1v19s-9.5,2.3-10.15,2.48a1.55,1.55,0,0,0-1.11,1.48V76.57a1.54,1.54,0,0,0,1.54,1.55h9.72v28.72c0,21.33,15,23.42,25.06,23.42a42.71,42.71,0,0,0,11-1.81,1.45,1.45,0,0,0,.87-1.4l0-13.13a1.58,1.58,0,0,0-1.54-1.55c-.81,0-2.89.33-5,.33-6.84,0-9.15-3.17-9.15-7.29V78.12h13.91a1.54,1.54,0,0,0,1.54-1.55V61.62A1.54,1.54,0,0,0,428.76,60.07Z"/><path class="cls-2" d="M250.94,63.82a31.82,31.82,0,0,1,16.14,4.28V37.91a1.42,1.42,0,0,1,1.41-1.43h17.09A1.42,1.42,0,0,1,287,37.91v89.17a1.42,1.42,0,0,1-1.41,1.43H273.72a1.41,1.41,0,0,1-1.24-.76,28.4,28.4,0,0,1-.72-4.11s-7,6.62-20.22,6.62c-15.53,0-24.43-7.87-24.43-35.36S241.33,63.82,250.94,63.82Zm6.67,50.24a20.31,20.31,0,0,0,9.85-2.84V83a22.62,22.62,0,0,0-8.74-2.83c-6.09-.55-12,1.29-12,15.82C246.76,111.29,249.41,114.31,257.61,114.06Z"/><path class="cls-2" d="M321.51,49.48a11,11,0,1,0-11,11.1A11,11,0,0,0,321.51,49.48Z"/><path class="cls-2" d="M320.29,108.14V67a1.42,1.42,0,0,0-1.41-1.42h-17a1.62,1.62,0,0,0-1.48,1.58v59c0,1.73,1.08,2.25,2.48,2.25H318.2c1.68,0,2.09-.83,2.09-2.28Z"/><path class="cls-2" d="M353.57,81.73c4.43,0,14.06,2.37,14.06,15s-6.91,16.84-14.07,16.84-14.08-4.16-14.08-16.84,9.63-15,14.07-15V65.09c-9.06,0-28.74,4.84-28.74,30.75s14.12,34.42,28.76,34.42,28.75-8.51,28.75-34.42-19.67-30.75-28.73-30.75"/><path class="cls-2" d="M504.85,129.22h16.91a1.42,1.42,0,0,0,1.41-1.43V84.07a19.14,19.14,0,0,1,10.4-3.14c6.09,0,7.71,2.76,7.71,8.73v38.13a1.42,1.42,0,0,0,1.41,1.43h17.16a1.42,1.42,0,0,0,1.41-1.43v-41c0-17.74-9.88-22.08-23.48-22.08-11.16,0-20.15,6.16-20.15,6.16s-.43-3.24-.62-3.63a1.51,1.51,0,0,0-1.25-.77l-10.91.05a1.42,1.42,0,0,0-1.41,1.42v59.86A1.42,1.42,0,0,0,504.85,129.22Z"/><path class="cls-2" d="M215.74,262.88h16.91a1.43,1.43,0,0,0,1.41-1.43V217.73a19,19,0,0,1,10.39-3.15c6.1,0,7.72,2.77,7.72,8.74v38.13a1.42,1.42,0,0,0,1.4,1.43h17.17a1.43,1.43,0,0,0,1.41-1.43v-41c0-17.73-9.89-22.07-23.49-22.07-11.15,0-20.14,6.16-20.14,6.16a34.48,34.48,0,0,0-.63-3.63,1.49,1.49,0,0,0-1.24-.77l-10.92,0a1.42,1.42,0,0,0-1.41,1.42v59.86A1.42,1.42,0,0,0,215.74,262.88Z"/><path class="cls-2" d="M468.71,267.59h16.91a1.42,1.42,0,0,0,1.41-1.43V222.44a19.09,19.09,0,0,1,10.39-3.15c6.1,0,7.72,2.77,7.72,8.74v38.13a1.42,1.42,0,0,0,1.41,1.43h17.16a1.42,1.42,0,0,0,1.41-1.43v-41c0-17.73-9.88-22.07-23.48-22.07-11.16,0-20.15,6.16-20.15,6.16a36.43,36.43,0,0,0-.62-3.63,1.51,1.51,0,0,0-1.25-.77l-10.92,0a1.42,1.42,0,0,0-1.41,1.42v59.86A1.42,1.42,0,0,0,468.71,267.59Z"/><path class="cls-2" d="M506.82,267.59h16.91a1.42,1.42,0,0,0,1.4-1.43V222.44a19.1,19.1,0,0,1,10.4-3.15c6.1,0,7.72,2.77,7.72,8.74v38.13a1.42,1.42,0,0,0,1.4,1.43h17.17a1.42,1.42,0,0,0,1.4-1.43v-41c0-17.73-9.88-22.07-23.48-22.07-11.15,0-20.15,6.16-20.15,6.16s-1.46,0-1.66-.4-.4-2.17-.94-2.17l-10.18-1.78a1.42,1.42,0,0,0-1.41,1.42v59.86A1.43,1.43,0,0,0,506.82,267.59Z"/><path class="cls-2" d="M392.28,219c1.08,0,1.69-2,1.64-3.06-.73-16-10.17-17.55-23.24-17.55-11.15,0-20.14,6.16-20.14,6.16a34.48,34.48,0,0,0-.63-3.63,1.49,1.49,0,0,0-1.24-.77l-10.92,0a1.42,1.42,0,0,0-1.41,1.42v59.88a1.41,1.41,0,0,0,1.41,1.41h16.91a1.43,1.43,0,0,0,1.41-1.43V217.73a19,19,0,0,1,10.39-3.15c5.62,0,7.2-.65,7.41,3.91a1.39,1.39,0,0,0,1.34,1.33Z"/><path class="cls-2" d="M323.34,192.69H309.43l0-18.39c0-.69-.36-1-1.16-1h-19c-.73,0-1.13.33-1.13,1v19s-9.5,2.29-10.14,2.48a1.53,1.53,0,0,0-1.11,1.48v11.94a1.54,1.54,0,0,0,1.53,1.55h9.72v28.71c0,21.33,15,23.43,25.06,23.43a42.13,42.13,0,0,0,11-1.82,1.43,1.43,0,0,0,.87-1.39l0-13.13A1.56,1.56,0,0,0,323.6,245c-.81,0-2.88.33-5,.33-6.83,0-9.15-3.18-9.15-7.29V210.74h13.91a1.55,1.55,0,0,0,1.54-1.55v-15A1.54,1.54,0,0,0,323.34,192.69Z"/><path class="cls-2" d="M99.64,181.76H75.72c-.58,0-1-.63-1-1.41v-17c0-.78.46-1.41,1-1.41h64.77c.58,0,1,.63,1,1.41v17.08c0,.78-.46,1.41-1,1.41l-27.7,0Z"/><path class="cls-2" d="M106.12,197.25l18.88-27a1.42,1.42,0,0,1,2-.35l14,9.77a1.41,1.41,0,0,1,.34,2L90.12,254.71a1.41,1.41,0,0,1-2,.36l-14-9.79a1.42,1.42,0,0,1-.34-2l21.91-31.22Z"/><path class="cls-2" d="M98.44,262.83H74.51c-.57,0-1-.64-1-1.41V244.38c0-.78.46-1.4,1-1.4h64.78c.57,0,1,.63,1,1.41v17.08c0,.78-.47,1.41-1,1.41l-27.71-.05Z"/><path class="cls-3" d="M453.34,102.16c.68,8.57,9.11,12.65,18.76,12.65a59.34,59.34,0,0,0,16.24-2.09,2.06,2.06,0,0,1,2.56,1.59l1.77,9.15A3.13,3.13,0,0,1,490.6,127a68.68,68.68,0,0,1-21.49,3.14c-22.57,0-35.49-13.06-35.49-33.87,0-16.86,10.47-35.5,33.59-35.5,21.49,0,29.65,16.73,29.65,33.19a51.5,51.5,0,0,1-.34,5.76,2.72,2.72,0,0,1-2.7,2.4ZM475.23,88a2.3,2.3,0,0,0,2.26-2.64c-.7-4.89-3.51-10.83-11.51-10.83-7.45,0-11.11,5.78-12.35,10.94a2.07,2.07,0,0,0,2,2.53Z"/><path class="cls-3" d="M164.56,235.56c.66,8.35,8.88,12.33,18.3,12.33a57.73,57.73,0,0,0,15.84-2,2,2,0,0,1,2.49,1.55l1.73,8.93a3.06,3.06,0,0,1-2,3.49,66.94,66.94,0,0,1-21,3.06c-22,0-34.61-12.73-34.61-33,0-16.44,10.21-34.61,32.76-34.61C199,195.24,207,211.55,207,227.6a49.15,49.15,0,0,1-.33,5.61,2.65,2.65,0,0,1-2.63,2.35Zm21.35-13.8a2.23,2.23,0,0,0,2.2-2.57c-.68-4.76-3.42-10.56-11.22-10.56-7.26,0-10.84,5.64-12,10.67a2,2,0,0,0,2,2.46Z"/><path class="cls-4" d="M108.57,91.93c-7.31-.8-14.33-2.44-20.19-7.26A20.17,20.17,0,0,1,83.69,79c-.22-.37-.4-.61-.91-.59a131.28,131.28,0,0,0-24.27,3.09c-1.06.25-2.12.57-3.18.81-.2.05-.53.33-.66,0s.29-.35.5-.41c2.81-.78,5.65-1.41,8.52-1.92A130.64,130.64,0,0,1,82.1,78c1,0,.84,0,.6-.93-.33-1.29-1.09-1.5-2.3-1.53a120.34,120.34,0,0,0-25,1.79.52.52,0,0,1-.17,0c-.28,0-.73.35-.8-.12s.45-.32.71-.37a118.83,118.83,0,0,1,25.27-1.79c.2,0,.4,0,.6,0,.78.12.79-.15.6-.83-1.76-6.23-2.38-12.53-.9-18.9a21.59,21.59,0,0,1,5.07-9.52A1.05,1.05,0,0,0,86,44.64c-1.66-5.11-1.13-10.12.71-15.08.2-.56.62-.53,1-.54a17,17,0,0,1,6.88,1.47,44.85,44.85,0,0,1,8.42,4.58,1.43,1.43,0,0,0,1.27.22A58.66,58.66,0,0,1,132,35a1.59,1.59,0,0,0,1.36-.24,36.83,36.83,0,0,1,11-5.25,13.85,13.85,0,0,1,3.68-.46,1.12,1.12,0,0,1,1.21.85,23.1,23.1,0,0,1,.88,13.85.83.83,0,0,0,.22.92,24,24,0,0,1,6.74,17.61A54,54,0,0,1,155.8,75a1.44,1.44,0,0,0,.84.07,132.85,132.85,0,0,1,19.64.71c2.29.26,4.57.6,6.84,1,.3.06.87,0,.8.37s-.59.16-.86.11a119.69,119.69,0,0,0-23.37-1.82c-1.15,0-2.31.1-3.46.09-.52,0-.69.2-.83.63-.56,1.73-.57,1.72,1.25,1.79A119.45,119.45,0,0,1,183,81.84a1.77,1.77,0,0,1,.33.08c.17.07.46,0,.39.34s-.37.17-.55.12c-1.77-.41-3.52-.88-5.3-1.27a118.65,118.65,0,0,0-17.22-2.36c-1.81-.12-3.63-.2-5.45-.31-.32,0-.59,0-.77.35-2.65,5.83-7.47,9.06-13.34,11a46,46,0,0,1-11.26,2.17,16.53,16.53,0,0,1-3.44.15C120.44,92,114.5,92.29,108.57,91.93Zm39.16-22c.11-.33-.08-.62-.14-.93a13.47,13.47,0,0,0-12-10.52,100,100,0,0,0-11.74.4,92.67,92.67,0,0,1-12.36-.11,58.65,58.65,0,0,0-10.35-.13A13.28,13.28,0,0,0,89.94,69.93c0,1-.09,2,0,2.94.36,6.67,3.49,11.39,9.8,13.87A37.61,37.61,0,0,0,110.33,89a134.27,134.27,0,0,0,17.14.15,40,40,0,0,0,9.4-1.36c4.93-1.42,8.51-4.29,10-9.35A23.13,23.13,0,0,0,147.73,69.93Z"/><path class="cls-4" d="M103.59,115.51c.07-3,.11-6,0-9a3.24,3.24,0,0,0,.16-.65c0-2.15,0-4.3.19-6.45a15.12,15.12,0,0,1,2.32-5,22.56,22.56,0,0,1,7.36-1.15c4.16,0,8.35-.41,12.5.3,3.17.55,5.82,2,7.41,4.91.18.34.3.78.8.82a16.67,16.67,0,0,1,.38,4.1c0,3.69,0,7.38,0,11.07,0,.31,0,.63,0,.94,0,.83,0,1.67,0,2.5a6.08,6.08,0,0,0,3.76,6.15,1.34,1.34,0,0,1,.78,1.86l-.3.24-.22.11a12.84,12.84,0,0,1-6-.8,6.48,6.48,0,0,1-4.14-6.12c-.05-1.55,0-3.11-.05-4.66,0-2.92.05-5.83,0-8.74a8.5,8.5,0,0,0-1-4c-.19-.35-.35-.77-.87-.9,0,.26,0,.46,0,.66l0,12.82c0,3.19-.08,6.38,0,9.57,0,1.83.55,3.54,2.36,4.5.63,1.24.47,1.74-.73,2.33l-.79.1a11.58,11.58,0,0,1-5.18-2.15,7.14,7.14,0,0,1-2.36-5.87c.08-2.94,0-5.88,0-8.83l0-7.86c0-2,0-4,0-6.06,0-.58-.2-1-.89-1s-.76.49-.76,1q0,7,0,13.92c0,2.9-.08,5.81,0,8.71a7.6,7.6,0,0,1-2.31,6,11.21,11.21,0,0,1-5,2.15l-1.2,0c-1.09-.71-1.16-1.32-.29-2.59a3.59,3.59,0,0,0,2.17-3.53c0-3.45,0-6.91,0-10.36V100.74a2,2,0,0,0-1,1.05,6.67,6.67,0,0,0-.74,2.47c-.36,3.45-.13,6.91-.15,10.37,0,1.21-.07,2.41,0,3.62.14,3.28-1.09,5.75-4.16,7.15l-.65.22a13.35,13.35,0,0,1-5.1.64c-.51,0-1-.17-1.16-.72a1.18,1.18,0,0,1,.61-1.32,7.26,7.26,0,0,1,.93-.45,5.12,5.12,0,0,0,3.29-4.21A23.81,23.81,0,0,0,103.59,115.51Z"/><path class="cls-5" d="M103.59,115.51a23.81,23.81,0,0,1,0,4,5.12,5.12,0,0,1-3.29,4.21,7.26,7.26,0,0,0-.93.45,1.18,1.18,0,0,0-.61,1.32c.15.55.65.69,1.16.72a13.35,13.35,0,0,0,5.1-.64l.65-.22a9.82,9.82,0,0,1,3.49,2.81c.06.09.25.1.38.14-.87,1.27-.8,1.88.29,2.59v8.29a37.46,37.46,0,0,1-6-.75,68.73,68.73,0,0,1-8.39-2c-3.55-1.17-7-2.47-9.84-5.05-3.53-3.24-2.83-6.73.58-9.46s7.14-3.94,11.09-5.06A57.32,57.32,0,0,1,103.59,115.51Z"/><path class="cls-6" d="M139.26,125.84a1.34,1.34,0,0,0-.78-1.86,6.08,6.08,0,0,1-3.76-6.15c0-.83,0-1.67,0-2.5,5.47.92,10.85,2.17,15.77,4.85a12.82,12.82,0,0,1,4.34,3.51,5.15,5.15,0,0,1-.42,7.06,18.9,18.9,0,0,1-6.95,4.43,57.62,57.62,0,0,1-12.39,3.35,1.29,1.29,0,0,1-.34,0c0-2.16-.07-4.33,0-6.49a5.77,5.77,0,0,1,3.41-5.28c.25-.12.57-.17.53-.56l.22-.11A.28.28,0,0,0,139.26,125.84Z"/><path class="cls-7" d="M138.74,126.19c0,.39-.28.44-.53.56A5.77,5.77,0,0,0,134.8,132c-.1,2.16,0,4.33,0,6.49a38.5,38.5,0,0,1-6.23.73v-7.44c0-.34.1-.71-.25-1,1.2-.59,1.36-1.09.73-2.33a18.8,18.8,0,0,1,2.23-2.14c.48-.33,1.17-.36,1.45-1A12.84,12.84,0,0,0,138.74,126.19Z"/><path class="cls-8" d="M120,114.1c0,3,.08,5.89,0,8.83a7.1,7.1,0,0,0,2.36,5.86,1.06,1.06,0,0,1-.31.61,7.64,7.64,0,0,0-1.3,2.69c-.78,2.52-.41,5.09-.48,7.65l-1.94-.05a22.72,22.72,0,0,1-.14-4,10.3,10.3,0,0,0-2.11-6.84,7.6,7.6,0,0,0,2.31-6c-.06-2.9,0-5.81,0-8.71Z"/><path class="cls-7" d="M120.23,139.74c.07-2.56-.3-5.13.48-7.65a7.64,7.64,0,0,1,1.3-2.69,1.06,1.06,0,0,0,.31-.61A11.48,11.48,0,0,0,127.5,131c-.17.6-.37,1.2-.52,1.81-.56,2.2-.29,4.45-.34,6.68A42.94,42.94,0,0,1,120.23,139.74Z"/><path class="cls-7" d="M116,128.81a10.3,10.3,0,0,1,2.11,6.84,22.72,22.72,0,0,0,.14,4,55.13,55.13,0,0,1-6.55-.3c0-2.83.16-5.67-.72-8.43A11.21,11.21,0,0,0,116,128.81Z"/><path class="cls-9" d="M134.32,99.22c-.5,0-.62-.48-.8-.82-1.59-3-4.24-4.36-7.41-4.91-4.15-.71-8.34-.34-12.5-.3a22.56,22.56,0,0,0-7.36,1.15,17.07,17.07,0,0,1,2.32-2.41c5.93.36,11.87.09,17.8.16a16.53,16.53,0,0,0,3.44-.15c.07.32.36.42.58.6A11.34,11.34,0,0,1,134.32,99.22Z"/><path class="cls-6" d="M111,131c.88,2.76.7,5.6.72,8.43l-1.92-.16v-8.29Z"/><path class="cls-10" d="M126.64,139.44c0-2.23-.22-4.48.34-6.68.15-.61.35-1.21.52-1.81l.79-.1c.35.25.25.62.25,1v7.44C127.93,139.57,127.27,139.34,126.64,139.44Z"/><path class="cls-11" d="M147.73,69.93a23.13,23.13,0,0,1-.84,8.48c-1.51,5.06-5.09,7.93-10,9.35a40,40,0,0,1-9.4,1.36A134.27,134.27,0,0,1,110.33,89,37.61,37.61,0,0,1,99.7,86.74c-6.31-2.48-9.44-7.2-9.8-13.87-.05-1,0-2,0-2.94a.33.33,0,0,0,.28-.28,12.46,12.46,0,0,1,2.67-5.18,11.66,11.66,0,0,1,5.61-4.14c3.53-1,7.08-.68,10.63-.4,2.8.22,5.61.43,8.42.59a58.42,58.42,0,0,0,8.36-.36,75.3,75.3,0,0,1,9.73-.46,11.12,11.12,0,0,1,5.74,1.62,14.85,14.85,0,0,1,6,8.07C147.47,69.6,147.41,69.88,147.73,69.93Zm-6.19,3.18c0-3.22-.58-5.31-1.72-7-2.28-3.34-5.94-3.46-8.38-.26A10.37,10.37,0,0,0,129.53,73a10.54,10.54,0,0,0,2,5.8,4.64,4.64,0,0,0,7.44.63A9.24,9.24,0,0,0,141.54,73.11Zm-32.39-1.17A9.5,9.5,0,0,0,107,65.57a4.66,4.66,0,0,0-4.94-1.87,5.47,5.47,0,0,0-3.21,2.48A11.33,11.33,0,0,0,99.35,79a4.65,4.65,0,0,0,7.16.53C108.52,77.52,109.17,75,109.15,71.94Zm9.5,14.38a4,4,0,0,0,3.61-2.13c.18-.34.35-.72-.11-1s-.59.16-.76.46c-1.25,2.19-3.68,2.17-5,0-.16-.28-.3-.63-.7-.44s-.36.51-.2.87A3.87,3.87,0,0,0,118.65,86.32ZM120.4,80a1.49,1.49,0,1,0-3,.05,1.49,1.49,0,1,0,3-.05Z"/><path class="cls-12" d="M147.73,69.93c-.32-.05-.26-.33-.33-.54a14.85,14.85,0,0,0-6-8.07,11.12,11.12,0,0,0-5.74-1.62,75.3,75.3,0,0,0-9.73.46,58.42,58.42,0,0,1-8.36.36c-2.81-.16-5.62-.37-8.42-.59-3.55-.28-7.1-.61-10.63.4a11.66,11.66,0,0,0-5.61,4.14,12.46,12.46,0,0,0-2.67,5.18.33.33,0,0,1-.28.28,13.28,13.28,0,0,1,11.25-11.29,58.65,58.65,0,0,1,10.35.13,92.67,92.67,0,0,0,12.36.11,100,100,0,0,1,11.74-.4,13.47,13.47,0,0,1,12,10.52C147.65,69.31,147.84,69.6,147.73,69.93Z"/><path class="cls-13" d="M132.7,125.39c-.28.63-1,.66-1.45,1a18.8,18.8,0,0,0-2.23,2.14c-1.81-1-2.31-2.67-2.36-4.5-.08-3.19,0-6.38,0-9.57a7.2,7.2,0,0,1,1.85.16c0,1.55,0,3.11.05,4.66A6.48,6.48,0,0,0,132.7,125.39Z"/><path class="cls-13" d="M109.53,128.35c-.13,0-.32,0-.38-.14a9.82,9.82,0,0,0-3.49-2.81c3.07-1.4,4.3-3.87,4.16-7.15,0-1.21,0-2.41,0-3.62a7.72,7.72,0,0,0,1.86-.17c0,3.45,0,6.91,0,10.36A3.59,3.59,0,0,1,109.53,128.35Z"/><path class="cls-14" d="M121.47,84.78c.32,1.13.62,2.27,1,3.38a1.3,1.3,0,0,1-.36,1.42,1,1,0,0,1-1.2.1,1.13,1.13,0,0,1-.56-1.33c.27-1.21.63-2.41,1-3.61Z"/><path class="cls-1" d="M120,114.1h-1.59q0-7,0-13.92c0-.54.08-1,.76-1s.89.44.89,1c0,2,0,4,0,6.06Z"/><path class="cls-1" d="M111.7,114.46a7.72,7.72,0,0,1-1.86.17c0-3.46-.21-6.92.15-10.37a6.67,6.67,0,0,1,.74-2.47,2,2,0,0,1,1-1.05Z"/><path class="cls-15" d="M128.51,114.61a7.2,7.2,0,0,0-1.85-.16l0-12.82c0-.2,0-.4,0-.66.52.13.68.55.87.9a8.5,8.5,0,0,1,1,4C128.56,108.78,128.51,111.69,128.51,114.61Z"/><path class="cls-7" d="M139.26,125.84a.28.28,0,0,1-.3.24Z"/><path class="cls-16" d="M141.54,73.11a9.24,9.24,0,0,1-2.61,6.28,4.64,4.64,0,0,1-7.44-.63,10.54,10.54,0,0,1-2-5.8,10.37,10.37,0,0,1,1.91-7.08c2.44-3.2,6.1-3.08,8.38.26C141,67.8,141.54,69.89,141.54,73.11Zm-10.65-1.2a7.45,7.45,0,0,0,1.39,4.85,3.13,3.13,0,0,0,5.12.16,7.53,7.53,0,0,0-.09-9.2,3.09,3.09,0,0,0-4.78,0A6.25,6.25,0,0,0,130.89,71.91Z"/><path class="cls-16" d="M109.15,71.94c0,3.07-.63,5.58-2.64,7.58A4.65,4.65,0,0,1,99.35,79a11.33,11.33,0,0,1-.48-12.81,5.47,5.47,0,0,1,3.21-2.48A4.66,4.66,0,0,1,107,65.57,9.5,9.5,0,0,1,109.15,71.94Zm-9.43.4a6.73,6.73,0,0,0,1.51,4.58,3.09,3.09,0,0,0,4.83.16c2.25-2.3,2.24-7.15,0-9.44a3.05,3.05,0,0,0-4.6,0A6.48,6.48,0,0,0,99.72,72.34Z"/><path class="cls-17" d="M118.65,86.32a3.87,3.87,0,0,1-3.14-2.24c-.16-.36-.21-.69.2-.87s6.06-.32,6.22,0c1.29,2.22-1.79,2.72-.54.53.17-.3.31-.7.76-.46s.29.62.11,1A4,4,0,0,1,118.65,86.32Z"/><path class="cls-18" d="M120.4,80a1.49,1.49,0,1,1-3,.05,1.49,1.49,0,1,1,3-.05Z"/><path class="cls-19" d="M130.89,71.91a6.25,6.25,0,0,1,1.64-4.21,3.09,3.09,0,0,1,4.78,0,7.53,7.53,0,0,1,.09,9.2,3.13,3.13,0,0,1-5.12-.16A7.45,7.45,0,0,1,130.89,71.91Z"/><path class="cls-20" d="M99.72,72.34a6.48,6.48,0,0,1,1.73-4.74,3.05,3.05,0,0,1,4.6,0c2.25,2.29,2.26,7.14,0,9.44a3.09,3.09,0,0,1-4.83-.16A6.73,6.73,0,0,1,99.72,72.34Z"/><path class="cls-21" d="M137.53,69.74c-.05.66-.38,1.05-1,1a1,1,0,0,1,0-2A1,1,0,0,1,137.53,69.74Z"/><path class="cls-22" d="M102.78,74.39a1.19,1.19,0,0,1,1.13,1.19,1.23,1.23,0,0,1-1.2,1.13,1.2,1.2,0,0,1-1.13-1.2A1.18,1.18,0,0,1,102.78,74.39Z"/></g></g></svg>